<svg width="22" height="14" viewBox="0 0 22 14" fill="none" xmlns="http://www.w3.org/2000/svg">
<path d="M19.0811 0.0484705C18.666 0.174073 18.6502 0.185493 13.3689 5.27051L8.17057 10.2718L5.81849 8.00714C3.63243 5.90995 3.44664 5.73867 3.20155 5.62829C2.57301 5.34664 1.90493 5.43418 1.40685 5.86808C1.01154 6.21063 0.817837 6.75872 0.912711 7.25352C1.01154 7.76354 0.948289 7.69884 4.22935 10.8465C7.09929 13.6022 7.27718 13.7658 7.51831 13.8686C7.82665 13.998 8.24963 14.0361 8.53426 13.9638C9.01653 13.8382 8.81097 14.0247 14.9738 8.09087C21.3541 1.94013 20.9904 2.31694 21.0892 1.77266C21.2237 1.01523 20.7295 0.280646 19.9349 0.0484705C19.7136 -0.0162344 19.2945 -0.0162344 19.0811 0.0484705Z" fill="#C1C1C1"/>
</svg>
