<svg width="22" height="22" viewBox="0 0 22 22" fill="none" xmlns="http://www.w3.org/2000/svg">
<path fill-rule="evenodd" clip-rule="evenodd" d="M0.507423 19.0426C-0.168977 19.719 -0.168977 20.8157 0.507422 21.4921C1.18382 22.1686 2.28048 22.1686 2.95688 21.4921L11 13.4487L19.0431 21.4922C19.7195 22.1686 20.8162 22.1686 21.4926 21.4922C22.169 20.8158 22.169 19.719 21.4926 19.0426L13.4494 10.9991L21.4927 2.95543C22.1691 2.279 22.1691 1.18229 21.4927 0.505859C20.8163 -0.170573 19.7196 -0.170572 19.0432 0.505859L11 8.54951L2.95676 0.505909C2.28036 -0.170522 1.1837 -0.170523 0.507299 0.505909C-0.1691 1.18234 -0.1691 2.27905 0.5073 2.95549L8.55052 10.9991L0.507423 19.0426Z" fill="white"/>
</svg>
