<svg width="41" height="40" viewBox="0 0 41 40" fill="none" xmlns="http://www.w3.org/2000/svg">
<g clip-path="url(#clip0_80_1092)">
<path d="M26 9.35433C26.3682 9.35433 26.6667 9.05583 26.6667 8.68766V4.68766C26.6667 4.3195 26.3682 4.021 26 4.021H4.66667C4.2985 4.021 4 4.3195 4 4.68766V8.68766C4 9.05583 4.2985 9.35433 4.66667 9.35433H26ZM5.33333 5.35433H25.3333V8.021H5.33333V5.35433Z" fill="#0EBAB9"/>
<path d="M4.66669 12.021H10.6667V13.3543H4.66669V12.021Z" fill="#0EBAB9"/>
<path d="M12 12.021H26V13.3543H12V12.021Z" fill="#0EBAB9"/>
<path d="M4.66669 16.021H10.6667V17.3543H4.66669V16.021Z" fill="#0EBAB9"/>
<path d="M12 16.021H26V17.3543H12V16.021Z" fill="#0EBAB9"/>
<path d="M4.66669 20.021H10.6667V21.3543H4.66669V20.021Z" fill="#0EBAB9"/>
<path d="M12 20.021H25.3333V21.3543H12V20.021Z" fill="#0EBAB9"/>
<path d="M4.66669 24.021H10.6667V25.3543H4.66669V24.021Z" fill="#0EBAB9"/>
<path d="M12 24.021H23.3333V25.3543H12V24.021Z" fill="#0EBAB9"/>
<path d="M4.66669 28.021H10.6667V29.3543H4.66669V28.021Z" fill="#0EBAB9"/>
<path d="M12 28.021H20.6667V29.3543H12V28.021Z" fill="#0EBAB9"/>
<path d="M17.7705 34.558L16.6322 31.144C16.5514 30.9028 16.3405 30.7283 16.0882 30.6944C15.8363 30.6606 15.5866 30.7732 15.4453 30.9848L13.416 34.0294L12.5999 32.3901C12.4971 32.1817 12.2933 32.0418 12.0618 32.0209C11.8307 32.0001 11.6051 32.1013 11.4668 32.2878L9.4668 34.9545L10.5332 35.7546L11.8861 33.9545L12.7367 35.656C12.8428 35.8686 13.054 36.0085 13.2913 36.0232C13.5293 36.0411 13.7578 35.9278 13.888 35.7279L15.7988 32.8614L16.7012 35.5681C16.793 35.839 17.0472 36.0216 17.3333 36.0212C17.388 36.0212 17.4424 36.0144 17.4954 36.0014L20.1621 35.3347L19.8392 34.0414L17.7705 34.558Z" fill="#0EBAB9"/>
<path d="M40.0186 14.2778C39.973 14.1066 39.8613 13.9608 39.708 13.8726L37.9746 12.8726L38.9746 11.1392C39.2402 10.6795 39.3122 10.133 39.1745 9.62028C39.0371 9.10758 38.7012 8.67074 38.2412 8.40576L37.0866 7.7391C36.6269 7.47347 36.0807 7.40153 35.568 7.53923C35.0553 7.6766 34.6185 8.01253 34.3532 8.47249L33.0199 10.7817L30.6667 14.8664V2.021C30.6667 0.916504 29.7712 0.0209961 28.6667 0.0209961H2C0.895508 0.0209961 0 0.916504 0 2.021V38.021C0 39.1255 0.895508 40.021 2 40.021H28.6667C29.7712 40.021 30.6667 39.1255 30.6667 38.021V25.533L37.3092 14.0278L38.4639 14.6945L34.1335 22.1997L35.2887 22.8664L39.9554 14.7837C40.0426 14.63 40.0654 14.4481 40.0186 14.2778ZM35.5127 9.14046C35.6966 8.8221 36.1038 8.71273 36.4225 8.89632L37.5775 9.56299C37.8965 9.74756 38.0052 10.1554 37.8206 10.4744L36.8206 12.2078L34.512 10.8745L35.5127 9.14046ZM29.3333 38.021C29.3333 38.3892 29.0348 38.6877 28.6667 38.6877H2C1.63184 38.6877 1.33333 38.3892 1.33333 38.021V2.021C1.33333 1.65283 1.63184 1.35433 2 1.35433H28.6667C29.0348 1.35433 29.3333 1.65283 29.3333 2.021V17.1756L22.3574 29.2583C22.3187 29.328 22.2933 29.4041 22.2819 29.4829H22.2773L21.3441 35.1024C21.2985 35.3765 21.4277 35.6502 21.6683 35.7892C21.9092 35.9279 22.2106 35.9032 22.4255 35.7264L26.8252 32.1076C26.8877 32.0581 26.9408 31.9976 26.9821 31.9292L29.3333 27.8423V38.021ZM23.4346 30.6506L25.2347 31.6883L22.9521 33.5662L23.4346 30.6506ZM26.154 30.6812L23.846 29.3478L33.846 12.0278L36.154 13.3612L26.154 30.6812Z" fill="#0EBAB9"/>
</g>
<defs>
<clipPath id="clip0_80_1092">
<rect width="40.0425" height="40" fill="white"/>
</clipPath>
</defs>
</svg>
