<svg width="64" height="64" viewBox="0 0 64 64" fill="none" xmlns="http://www.w3.org/2000/svg">
<g clip-path="url(#clip0_80_1125)">
<path d="M6.67619 26.2642L30.7888 10.1464C31.146 9.90597 31.5679 9.77739 31.9998 9.77739C32.4317 9.77739 32.8536 9.90597 33.2107 10.1464L57.3234 26.2663C57.7871 26.579 58.3086 26.7982 58.8578 26.9114C59.4071 27.0245 59.9736 27.0294 60.5248 26.9257C61.076 26.822 61.6011 26.6118 62.0703 26.3071C62.5395 26.0024 62.9435 25.6092 63.2592 25.1498C63.575 24.6905 63.7963 24.174 63.9105 23.63C64.0247 23.0859 64.0297 22.5249 63.925 21.9789C63.8203 21.433 63.6081 20.9128 63.3005 20.4481C62.9928 19.9834 62.5958 19.5833 62.132 19.2705L52.2661 12.6795V5.68373C52.2661 4.84292 51.9289 4.03654 51.3286 3.442C50.7284 2.84746 49.9142 2.51344 49.0653 2.51344H44.7976C43.973 2.51604 43.1812 2.83375 42.5873 3.40035C41.9934 3.96695 41.6432 4.73873 41.6096 5.55481L34.3993 0.732799C33.69 0.255309 32.8521 0 31.9944 0C31.1368 0 30.2989 0.255309 29.5896 0.732799L1.86753 19.2695C1.40383 19.5822 1.00687 19.9823 0.699294 20.447C0.391722 20.9117 0.179568 21.4318 0.0749462 21.9777C-0.0296756 22.5236 -0.0247165 23.0846 0.0895402 23.6286C0.203797 24.1726 0.425114 24.689 0.740855 25.1482C1.0566 25.6075 1.46058 26.0007 1.92973 26.3053C2.39889 26.61 2.92403 26.8201 3.47518 26.9237C4.02633 27.0274 4.59268 27.0225 5.14191 26.9093C5.69114 26.7961 6.21249 26.5769 6.67619 26.2642ZM43.7307 5.68373C43.7307 5.40346 43.8431 5.13467 44.0432 4.93649C44.2433 4.73831 44.5146 4.62697 44.7976 4.62697H49.0653C49.3483 4.62697 49.6197 4.73831 49.8198 4.93649C50.0199 5.13467 50.1323 5.40346 50.1323 5.68373V11.2529L43.7307 6.97193V5.68373ZM2.16734 22.3806C2.21864 22.1075 2.32406 21.8471 2.47752 21.6146C2.63099 21.3821 2.82944 21.1819 3.06143 21.0258L30.7835 2.48386C31.1409 2.24393 31.5627 2.11568 31.9944 2.11568C32.4262 2.11568 32.848 2.24393 33.2054 2.48386L60.9275 21.0216C61.393 21.3372 61.714 21.822 61.8207 22.3707C61.9274 22.9195 61.8111 23.4877 61.4972 23.952C61.174 24.4161 60.6791 24.7353 60.1199 24.8403C59.5606 24.9454 58.9821 24.8278 58.5098 24.5131L34.3972 8.39327C33.6846 7.92402 32.848 7.67368 31.9923 7.67368C31.1366 7.67368 30.3 7.92402 29.5874 8.39327L5.48123 24.5121C5.13076 24.7386 4.72141 24.8594 4.30292 24.8599C3.88444 24.8603 3.47482 24.7404 3.12385 24.5147C2.77287 24.2889 2.49565 23.9671 2.32584 23.5882C2.15604 23.2094 2.10098 22.7898 2.16734 22.3806Z" fill="#0EBAB9"/>
<path d="M10.5185 26C10.2337 26 9.96046 26.1112 9.75903 26.3092C9.55761 26.5071 9.44444 26.7756 9.44444 27.0556V56.6111H6.22222C5.36764 56.6111 4.54805 56.9447 3.94377 57.5386C3.33948 58.1325 3 58.9379 3 59.7778V62.9444C3 63.2244 3.11316 63.4929 3.31459 63.6908C3.51602 63.8888 3.78921 64 4.07407 64H59.9259C60.2108 64 60.484 63.8888 60.6854 63.6908C60.8868 63.4929 61 63.2244 61 62.9444V59.7778C61 58.9379 60.6605 58.1325 60.0562 57.5386C59.4519 56.9447 58.6324 56.6111 57.7778 56.6111H54.5556V27.0556C54.5556 26.7756 54.4424 26.5071 54.241 26.3092C54.0395 26.1112 53.7663 26 53.4815 26C53.1966 26 52.9234 26.1112 52.722 26.3092C52.5206 26.5071 52.4074 26.7756 52.4074 27.0556V57.6667C52.4074 57.9466 52.5206 58.2151 52.722 58.4131C52.9234 58.611 53.1966 58.7222 53.4815 58.7222H57.7778C58.0626 58.7222 58.3358 58.8334 58.5373 59.0314C58.7387 59.2293 58.8518 59.4978 58.8518 59.7778V61.8889H5.14815V59.7778C5.14815 59.4978 5.26131 59.2293 5.46274 59.0314C5.66417 58.8334 5.93736 58.7222 6.22222 58.7222H49.1852C49.47 58.7222 49.7432 58.611 49.9447 58.4131C50.1461 58.2151 50.2593 57.9466 50.2593 57.6667C50.2593 57.3867 50.1461 57.1182 49.9447 56.9203C49.7432 56.7223 49.47 56.6111 49.1852 56.6111H39.5185V46.0556C39.5185 44.0959 38.7264 42.2165 37.3164 40.8308C35.9064 39.4451 33.994 38.6667 32 38.6667C30.006 38.6667 28.0936 39.4451 26.6836 40.8308C25.2736 42.2165 24.4815 44.0959 24.4815 46.0556V56.6111H11.5926V27.0556C11.5926 26.7756 11.4794 26.5071 11.278 26.3092C11.0766 26.1112 10.8034 26 10.5185 26ZM26.6296 46.0556C26.6296 44.6558 27.1954 43.3134 28.2026 42.3236C29.2097 41.3338 30.5757 40.7778 32 40.7778C33.4243 40.7778 34.7903 41.3338 35.7974 42.3236C36.8046 43.3134 37.3704 44.6558 37.3704 46.0556V56.6111H26.6296V46.0556Z" fill="#0EBAB9"/>
<path d="M47.8 41C48.3835 41 48.9431 40.7682 49.3556 40.3556C49.7682 39.9431 50 39.3835 50 38.8V32.2C50 31.6165 49.7682 31.0569 49.3556 30.6444C48.9431 30.2318 48.3835 30 47.8 30H41.2C40.6165 30 40.0569 30.2318 39.6444 30.6444C39.2318 31.0569 39 31.6165 39 32.2V38.8C39 39.3835 39.2318 39.9431 39.6444 40.3556C40.0569 40.7682 40.6165 41 41.2 41H47.8ZM41.2 32.2H47.8V38.8H41.2V32.2Z" fill="#0EBAB9"/>
<path d="M22.8 41C23.3835 41 23.9431 40.7682 24.3556 40.3556C24.7682 39.9431 25 39.3835 25 38.8V32.2C25 31.6165 24.7682 31.0569 24.3556 30.6444C23.9431 30.2318 23.3835 30 22.8 30H16.2C15.6165 30 15.0569 30.2318 14.6444 30.6444C14.2318 31.0569 14 31.6165 14 32.2V38.8C14 39.3835 14.2318 39.9431 14.6444 40.3556C15.0569 40.7682 15.6165 41 16.2 41H22.8ZM16.2 32.2H22.8V38.8H16.2V32.2Z" fill="#0EBAB9"/>
</g>
<defs>
<clipPath id="clip0_80_1125">
<rect width="64" height="64" fill="white"/>
</clipPath>
</defs>
</svg>
