<svg width="64" height="64" viewBox="0 0 64 64" fill="none" xmlns="http://www.w3.org/2000/svg">
<path d="M58.6667 1.06689H13.8667C10.9224 1.07054 8.53698 3.45596 8.53333 6.40023V48.0002H1.06667C0.477604 48.0002 0 48.4778 0 49.0669V51.2002C0.00364584 54.1445 2.38906 56.5299 5.33333 56.5336H38.4255V61.8669C38.4255 62.2711 38.6536 62.6403 39.0151 62.8211C39.3766 63.0018 39.8089 62.9627 40.1323 62.72L43.7589 60.0002L47.3854 62.72C47.5698 62.8591 47.7948 62.9341 48.0255 62.9336C48.1911 62.9351 48.3547 62.8987 48.5036 62.8268C48.8667 62.645 49.0948 62.2726 49.0922 61.8669V56.5336H50.1333C53.0776 56.5299 55.463 54.1445 55.4667 51.2002V9.60023H62.9333C63.5224 9.60023 64 9.12262 64 8.53356V6.40023C63.9964 3.45596 61.6109 1.07054 58.6667 1.06689ZM38.4255 54.4002H5.33333C3.56615 54.4002 2.13333 52.9674 2.13333 51.2002V50.1336H38.4255V54.4002ZM46.9589 59.7336L44.399 57.8138C44.0198 57.5289 43.4984 57.5289 43.1188 57.8138L40.5589 59.7336V47.82C40.7651 47.8362 40.9724 47.8325 41.1776 47.808C41.7932 48.6023 42.7417 49.0669 43.7464 49.0669C44.751 49.0669 45.699 48.6023 46.3146 47.808C46.5271 47.8336 46.7417 47.8377 46.9547 47.82L46.9589 59.7336ZM48.3307 42.6455C48.0464 42.7466 47.8177 42.9638 47.7026 43.2424C47.587 43.5216 47.5948 43.8362 47.725 44.1091C47.9266 44.532 47.8411 45.0362 47.5109 45.3685C47.1802 45.7007 46.6766 45.7893 46.2526 45.5898C45.9802 45.4596 45.6651 45.4513 45.3859 45.5664C45.1063 45.682 44.8896 45.9106 44.788 46.1955C44.6323 46.6372 44.2146 46.933 43.7464 46.933C43.2776 46.933 42.8599 46.6372 42.7042 46.1955C42.6031 45.9106 42.3859 45.682 42.1068 45.5664C41.8271 45.4513 41.512 45.4596 41.2396 45.5898C40.8156 45.7893 40.312 45.7007 39.9818 45.3685C39.651 45.0362 39.5656 44.532 39.7677 44.1091C39.8974 43.8367 39.9057 43.5216 39.7901 43.2429C39.675 42.9638 39.4469 42.7471 39.1625 42.6455C38.7203 42.4882 38.4245 42.0695 38.4245 41.6002C38.4245 41.131 38.7203 40.7122 39.1625 40.5549C39.4469 40.4534 39.6745 40.2367 39.7896 39.958C39.9052 39.6794 39.8969 39.3648 39.7677 39.0924C39.5646 38.6695 39.65 38.1648 39.9807 37.832C40.3109 37.4997 40.8151 37.4106 41.2396 37.6106C41.512 37.7409 41.8271 37.7492 42.1068 37.6341C42.3859 37.5185 42.6031 37.2898 42.7042 37.0049C42.8599 36.5632 43.2776 36.2674 43.7464 36.2674C44.2146 36.2674 44.6323 36.5632 44.788 37.0049C44.8896 37.2898 45.1063 37.5185 45.3859 37.6341C45.6651 37.7492 45.9802 37.7409 46.2526 37.6106C46.6766 37.4112 47.1802 37.4997 47.5109 37.832C47.8411 38.1643 47.9266 38.6685 47.725 39.0914C47.5948 39.3643 47.587 39.6789 47.7026 39.958C47.8177 40.2367 48.0464 40.4539 48.3307 40.5549C48.7719 40.7132 49.0667 41.1315 49.0667 41.6002C49.0667 42.069 48.7719 42.4872 48.3307 42.6455ZM54.3177 3.33356C54.2573 3.41898 54.2036 3.5096 54.1484 3.59919C54.0344 3.78148 53.9323 3.97002 53.8411 4.16429C53.7932 4.27106 53.7484 4.3695 53.7068 4.47367C53.6276 4.68304 53.5609 4.89658 53.5083 5.11377C53.4839 5.21325 53.4526 5.30908 53.4339 5.41012C53.3693 5.73669 53.3359 6.06794 53.3333 6.40023V51.2002C53.3333 52.9674 51.9005 54.4002 50.1333 54.4002C49.7776 54.3935 49.426 54.3273 49.0922 54.2039V46.7841C49.7557 46.0862 50.0688 45.1263 49.9458 44.1711C50.7385 43.5539 51.2021 42.6049 51.2021 41.6002C51.2021 40.5955 50.7385 39.6466 49.9458 39.0294C50.0719 38.0336 49.7307 37.0351 49.0219 36.3237C48.313 35.6127 47.3156 35.269 46.3188 35.3924C45.7031 34.5981 44.7552 34.1336 43.7505 34.1336C42.7458 34.1336 41.7974 34.5981 41.1818 35.3924C40.1854 35.2695 39.188 35.6132 38.4792 36.3242C37.7708 37.0351 37.4297 38.0336 37.5552 39.0294C36.7625 39.6466 36.2984 40.5955 36.2984 41.6002C36.2984 42.6049 36.7625 43.5539 37.5552 44.1711C37.4292 45.1398 37.7521 46.1132 38.4318 46.8153V48.0002H10.6667V6.40023C10.6667 4.63304 12.0995 3.20023 13.8667 3.20023H54.4C54.3703 3.24189 54.3479 3.28981 54.3177 3.33356ZM61.8667 7.46689H55.4667V6.40023C55.4667 4.63304 56.8995 3.20023 58.6667 3.20023C60.4339 3.20023 61.8667 4.63304 61.8667 6.40023V7.46689Z" fill="#0EBAB9"/>
<path d="M35.2 9.6001H39.4666V11.7334H35.2V9.6001Z" fill="#0EBAB9"/>
<path d="M24.5333 9.6001H33.0667V11.7334H24.5333V9.6001Z" fill="#0EBAB9"/>
<path d="M21.3334 14.9331H42.6667V17.0664H21.3334V14.9331Z" fill="#0EBAB9"/>
<path d="M16 21.3335H21.3333V23.4668H16V21.3335Z" fill="#0EBAB9"/>
<path d="M16 26.6665H27.7333V28.7998H16V26.6665Z" fill="#0EBAB9"/>
<path d="M23.4667 21.3335H48V23.4668H23.4667V21.3335Z" fill="#0EBAB9"/>
<path d="M29.8667 26.6665H48V28.7998H29.8667V26.6665Z" fill="#0EBAB9"/>
<path d="M16 32H37.3333V34.1333H16V32Z" fill="#0EBAB9"/>
<path d="M16 37.3335H34.1333V39.4668H16V37.3335Z" fill="#0EBAB9"/>
</svg>
