<svg width="26" height="26" viewBox="0 0 26 26" fill="none" xmlns="http://www.w3.org/2000/svg">
<g clip-path="url(#clip0_80_960)">
<path d="M25.3499 24.6999H23.3999V14.3H24.6999C25.2255 14.3 25.6995 13.9832 25.901 13.4975C26.1021 13.0117 25.9912 12.4527 25.6193 12.0805L13.9194 0.380542C13.6655 0.127044 13.3327 9.15527e-05 12.9999 9.15527e-05C12.6671 9.15527e-05 12.3343 0.127044 12.0808 0.381L8.44995 4.01143V2.60008C8.44995 1.88203 7.868 1.30008 7.14996 1.30008H5.84997C5.13192 1.30008 4.54997 1.88203 4.54997 2.60008V7.91141L0.380908 12.0805C0.00908979 12.4523 -0.102273 13.0113 0.099226 13.4975C0.300268 13.9832 0.774359 14.3 1.29999 14.3H2.59998V24.6999H0.649996C0.290772 24.6999 0 24.9907 0 25.3499C0 25.7092 0.290772 25.9999 0.649996 25.9999H25.3499C25.7091 25.9999 25.9998 25.7092 25.9998 25.3499C25.9998 24.9907 25.7091 24.6999 25.3499 24.6999ZM5.84997 2.60008H7.14996V5.31142L5.84997 6.61142V2.60008ZM22.0999 24.6999H3.89998V13H1.29999L12.9999 1.30008L24.6999 13H22.0999V24.6999Z" fill="white"/>
<path d="M17.7401 11.2403L7.34039 21.64L8.25962 22.5592L18.6593 12.1595L17.7401 11.2403Z" fill="white"/>
<path d="M9.74995 11.05C8.3165 11.05 7.14996 12.2161 7.14996 13.65C7.14996 15.0839 8.31691 16.25 9.74995 16.25C11.1834 16.25 12.3499 15.0839 12.3499 13.65C12.3499 12.2161 11.1834 11.05 9.74995 11.05ZM9.74995 14.95C9.03277 14.95 8.44996 14.3667 8.44996 13.65C8.44996 12.9333 9.03277 12.35 9.74995 12.35C10.4671 12.35 11.0499 12.9333 11.0499 13.65C11.0499 14.3667 10.4671 14.95 9.74995 14.95Z" fill="white"/>
<path d="M16.2499 17.55C14.8164 17.55 13.6499 18.7161 13.6499 20.15C13.6499 21.5839 14.8164 22.75 16.2499 22.75C17.6833 22.75 18.8499 21.5839 18.8499 20.15C18.8499 18.7161 17.6833 17.55 16.2499 17.55ZM16.2499 21.45C15.5327 21.45 14.9499 20.8667 14.9499 20.15C14.9499 19.4333 15.5327 18.85 16.2499 18.85C16.9671 18.85 17.5499 19.4333 17.5499 20.15C17.5499 20.8667 16.9671 21.45 16.2499 21.45Z" fill="white"/>
</g>
<defs>
<clipPath id="clip0_80_960">
<rect width="26" height="26" fill="white"/>
</clipPath>
</defs>
</svg>
