<svg width="25" height="25" viewBox="0 0 25 25" fill="none" xmlns="http://www.w3.org/2000/svg">
<g clip-path="url(#clip0_180_5)">
<path d="M24.1682 7.3687C24.0756 6.09561 23.8444 5.22516 23.5274 4.47424C23.1998 3.67689 22.7105 2.96863 22.0794 2.38626C21.4621 1.79414 20.7221 1.34148 19.9169 1.06437C19.1447 0.790899 18.267 0.609664 16.9907 0.589868C15.7048 0.565585 15.2967 0.563133 12.0396 0.656157C8.78245 0.749182 8.37516 0.774922 7.09731 0.867665C5.82422 0.960272 4.95378 1.19162 4.20303 1.5084C3.4055 1.83605 2.69724 2.32531 2.11487 2.95645C1.52275 3.57376 1.07027 4.31369 0.792982 5.11896C0.519514 5.89133 0.338273 6.7688 0.318478 8.0451C0.294194 9.33105 0.291742 9.73914 0.384767 12.9963C0.477791 16.2534 0.503531 16.6607 0.596275 17.9385C0.688882 19.2116 0.920226 20.0821 1.2372 20.833C1.56484 21.6303 2.05868 22.3385 2.68506 22.921C3.30237 23.5131 4.0423 23.9657 4.84757 24.2428C5.61994 24.5163 6.49741 24.6976 7.77389 24.7173C9.05477 24.7372 9.46304 24.7395 12.7202 24.6464C15.9773 24.5534 16.3846 24.5279 17.6624 24.4349C18.9355 24.3423 19.806 24.1112 20.5567 23.7942C22.1512 23.1248 23.3895 21.8137 23.9668 20.1838C24.24 19.4114 24.4215 18.5338 24.4412 17.2575C24.4609 15.9764 24.4634 15.5683 24.3703 12.3112C24.2773 9.0541 24.2609 8.64655 24.1682 7.3687ZM22.2875 17.2252C22.2694 18.3983 22.0907 19.0366 21.9387 19.4631C21.5654 20.5197 20.7596 21.3729 19.726 21.8058C19.3089 21.9819 18.6773 22.1969 17.5117 22.2817C16.2479 22.3742 15.8688 22.399 12.6679 22.4904C9.46701 22.5818 9.08235 22.5789 7.81996 22.5585C6.64687 22.5405 6.00857 22.3618 5.5821 22.2098C5.05652 22.0324 4.5744 21.7413 4.17877 21.3539C3.76931 20.9763 3.4513 20.5164 3.24423 20.0018C3.06815 19.5847 2.85315 18.9528 2.76838 17.7874C2.67586 16.5237 2.6511 16.1444 2.55968 12.9435C2.46826 9.74257 2.4712 9.35792 2.49158 8.09571C2.50956 6.92261 2.68829 6.28432 2.84027 5.85784C3.01763 5.33208 3.30874 4.85015 3.70087 4.4542C4.07833 4.04474 4.53828 3.72673 5.05307 3.51984C5.47017 3.34376 6.10199 3.12876 7.26738 3.04381C8.53113 2.95147 8.91041 2.92653 12.1111 2.83512C15.3168 2.74356 15.6967 2.74682 16.9591 2.76701C18.1322 2.78517 18.7705 2.9639 19.197 3.11588C19.7226 3.29306 20.2047 3.58417 20.6003 3.97154C21.0098 4.34918 21.3278 4.80913 21.5348 5.32392C21.7109 5.74102 21.9259 6.37265 22.0109 7.53823C22.1032 8.80198 22.1282 9.18108 22.2196 12.382C22.311 15.5829 22.3076 15.9582 22.2875 17.2252Z" fill="white"/>
<path d="M12.2062 6.49083C8.80392 6.588 6.12229 9.42712 6.21947 12.8296C6.31664 16.2321 9.15594 18.9135 12.5582 18.8163C15.9607 18.7192 18.6422 15.88 18.545 12.4776C18.4478 9.0751 15.6087 6.39365 12.2062 6.49083ZM12.4964 16.6512C10.2892 16.7142 8.44764 14.9752 8.3846 12.7678C8.32155 10.5603 10.0608 8.719 12.268 8.65596C14.4755 8.59291 16.3168 10.332 16.3798 12.5394C16.4429 14.7468 14.7038 16.5882 12.4964 16.6512Z" fill="white"/>
<path d="M20.0446 6.02313C20.0673 6.81764 19.4414 7.48025 18.6468 7.50295C17.8522 7.52564 17.1896 6.89982 17.1669 6.10532C17.1442 5.31062 17.7701 4.6482 18.5646 4.6255C19.3593 4.60281 20.0219 5.22844 20.0446 6.02313Z" fill="white"/>
</g>
<defs>
<clipPath id="clip0_180_5">
<rect width="24" height="24" fill="white" transform="translate(0 1) rotate(-1.63595)"/>
</clipPath>
</defs>
</svg>
