<svg width="25" height="25" viewBox="0 0 25 25" fill="none" xmlns="http://www.w3.org/2000/svg">
<g clip-path="url(#clip0_80_1274)">
<path d="M24.1682 7.05446C24.0756 5.78138 23.8444 4.91092 23.5274 4.16C23.1998 3.36265 22.7105 2.65439 22.0794 2.07202C21.4621 1.47991 20.7221 1.02724 19.9169 0.750133C19.1447 0.47666 18.267 0.295425 16.9907 0.275629C15.7048 0.251345 15.2967 0.248893 12.0396 0.341918C8.78245 0.434943 8.37516 0.460683 7.09731 0.553426C5.82422 0.646033 4.95378 0.877378 4.20303 1.19416C3.4055 1.52181 2.69724 2.01107 2.11487 2.64221C1.52275 3.25952 1.07027 3.99945 0.792982 4.80472C0.519514 5.57709 0.338273 6.45456 0.318478 7.73086C0.294194 9.01681 0.291742 9.4249 0.384767 12.682C0.477791 15.9391 0.503531 16.3464 0.596275 17.6243C0.688882 18.8974 0.920226 19.7678 1.2372 20.5187C1.56484 21.3161 2.05868 22.0242 2.68506 22.6067C3.30237 23.1988 4.0423 23.6515 4.84757 23.9286C5.61994 24.2021 6.49741 24.3833 7.77389 24.4031C9.05477 24.423 9.46304 24.4252 12.7202 24.3322C15.9773 24.2392 16.3846 24.2136 17.6624 24.1207C18.9355 24.0281 19.806 23.7969 20.5567 23.4799C22.1512 22.8106 23.3895 21.4995 23.9668 19.8696C24.24 19.0972 24.4215 18.2196 24.4412 16.9433C24.4609 15.6622 24.4634 15.2541 24.3703 11.997C24.2773 8.73986 24.2609 8.33231 24.1682 7.05446ZM22.2875 16.911C22.2694 18.0841 22.0907 18.7224 21.9387 19.1488C21.5654 20.2055 20.7596 21.0586 19.726 21.4916C19.3089 21.6677 18.6773 21.8827 17.5117 21.9674C16.2479 22.06 15.8688 22.0847 12.6679 22.1761C9.46701 22.2676 9.08235 22.2646 7.81996 22.2442C6.64687 22.2263 6.00857 22.0475 5.5821 21.8956C5.05652 21.7182 4.5744 21.4271 4.17877 21.0397C3.76931 20.6621 3.4513 20.2021 3.24423 19.6875C3.06815 19.2704 2.85315 18.6386 2.76838 17.4732C2.67586 16.2095 2.6511 15.8302 2.55968 12.6293C2.46826 9.42833 2.4712 9.04368 2.49158 7.78147C2.50956 6.60837 2.68829 5.97008 2.84027 5.54361C3.01763 5.01784 3.30874 4.53591 3.70087 4.13996C4.07833 3.7305 4.53828 3.41249 5.05307 3.2056C5.47017 3.02952 6.10199 2.81452 7.26738 2.72957C8.53113 2.63723 8.91041 2.61229 12.1111 2.52088C15.3168 2.42932 15.6967 2.43258 16.9591 2.45277C18.1322 2.47093 18.7705 2.64966 19.197 2.80164C19.7226 2.97882 20.2047 3.26993 20.6003 3.65731C21.0098 4.03494 21.3278 4.49489 21.5348 5.00968C21.7109 5.42678 21.9259 6.05841 22.0109 7.22399C22.1032 8.48774 22.1282 8.86684 22.2196 12.0678C22.311 15.2687 22.3076 15.644 22.2875 16.911Z" fill="#0D2839"/>
<path d="M12.2062 6.17653C8.80392 6.2737 6.12229 9.11282 6.21947 12.5153C6.31664 15.9178 9.15594 18.5992 12.5582 18.502C15.9607 18.4049 18.6422 15.5657 18.545 12.1633C18.4478 8.7608 15.6087 6.07935 12.2062 6.17653ZM12.4964 16.3369C10.2892 16.3999 8.44764 14.6609 8.3846 12.4535C8.32155 10.246 10.0608 8.4047 12.268 8.34166C14.4755 8.27861 16.3168 10.0177 16.3798 12.2251C16.4429 14.4325 14.7038 16.2739 12.4964 16.3369Z" fill="#0D2839"/>
<path d="M20.0446 5.70907C20.0673 6.50358 19.4414 7.16619 18.6468 7.18889C17.8522 7.21158 17.1896 6.58577 17.1669 5.79126C17.1442 4.99657 17.7701 4.33414 18.5646 4.31145C19.3593 4.28875 20.0219 4.91438 20.0446 5.70907Z" fill="#0D2839"/>
</g>
<defs>
<clipPath id="clip0_80_1274">
<rect width="24" height="24" fill="white" transform="translate(0 0.685547) rotate(-1.63595)"/>
</clipPath>
</defs>
</svg>
