<svg width="142" height="50" viewBox="0 0 142 50" fill="none" xmlns="http://www.w3.org/2000/svg">
<path d="M49.8045 27.0542C49.7111 24.8133 48.0772 22.9692 45.4394 20.8917C43.2219 19.0943 37.0127 14.0056 37.0127 14.0056C38.7401 12.6284 39.1369 12.1616 40.4674 11.1111C44.5057 7.88981 43.9689 4.8086 43.572 3.64146C42.8017 1.47059 40.5608 0 37.9931 0H27.3255H23.1238H9.28163C5.19663 0 1.74192 2.31093 0.481412 5.88236C-0.872461 9.75722 0.668153 13.9822 4.61307 17.1569C6.36376 18.5574 9.51501 21.0785 12.783 23.6929C11.6159 24.0196 10.4254 24.6266 9.32829 25.677C7.78765 27.1476 6.99402 29.155 7.08739 31.3492C7.2041 34.1036 8.69802 36.7881 11.3124 38.8655L25.2247 50L46.6532 32.8198C48.8241 31.0458 49.8978 29.1084 49.8045 27.0542ZM27.3255 4.20169H37.9931C38.7634 4.20169 39.4403 4.55182 39.6038 5.01868C39.7905 5.50887 39.417 6.55928 37.853 7.81982C34.9819 10.1074 30.4534 13.7489 27.3255 16.2465V4.20169ZM7.22744 13.8422C4.72978 11.8347 3.67935 9.36039 4.42632 7.23621C5.07992 5.36882 6.97067 4.17834 9.25823 4.17834H23.1005V26.5173C18.5019 22.8525 10.4721 16.4333 7.22744 13.8422ZM13.9501 35.5276C12.3161 34.2204 11.3591 32.6097 11.2891 31.1158C11.2424 30.1587 11.5692 29.2951 12.2461 28.6648C14.6504 26.4239 17.1014 27.0542 19.6224 29.085C20.4861 29.762 22.2134 31.1391 23.1238 31.8861V42.8805L13.9501 35.5276ZM43.8054 29.6919L27.3022 42.8805V21.6153C27.909 21.1251 29.6364 19.9113 30.7336 19.0243C32.5542 17.5537 34.6784 17.437 36.4525 18.8609C39.1136 20.9851 41.051 22.7591 43.1051 24.4398C44.5524 25.6302 45.3694 26.6107 45.3927 27.4043C45.4394 28.268 44.4357 29.2017 43.8054 29.6919Z" fill="white"/>
<path d="M27.3255 4.20166H37.9931C38.7634 4.20166 39.4403 4.5518 39.6038 5.01866C39.7905 5.50885 39.417 6.55928 37.853 7.81975C34.9819 10.1074 30.4534 13.7488 27.3255 16.2465V4.20166Z" fill="#EDDCAE"/>
<path d="M7.22759 13.8423C4.72988 11.8348 3.67946 9.36046 4.42643 7.23628C5.08002 5.36885 6.97078 4.17838 9.25837 4.17838H23.1005V26.5174C18.5021 22.8525 10.4722 16.4333 7.22759 13.8423Z" fill="#DA5F2F"/>
<path d="M13.95 35.5276C12.316 34.2204 11.3589 32.6097 11.2889 31.1158C11.2422 30.1588 11.569 29.2951 12.246 28.6648C14.6503 26.4239 17.1012 27.0542 19.6223 29.085C20.4859 29.762 22.2133 31.1391 23.1236 31.8861V42.8805L13.95 35.5276Z" fill="#EDDCAE"/>
<path d="M43.8051 29.6919L27.3019 42.8805V21.6153C27.9087 21.1251 29.6361 19.9113 30.7333 19.0243C32.5539 17.5537 34.6781 17.4369 36.4522 18.8609C39.1133 20.9851 41.0507 22.7591 43.1048 24.4398C44.5521 25.6302 45.3691 26.6107 45.3924 27.4043C45.4391 28.268 44.4354 29.2017 43.8051 29.6919Z" fill="#0EBAB9"/>
<path d="M118.098 5.86655L117.954 11.2404L118.078 15.4774H115.349L115.453 11.5711H115.287C114.681 12.0671 114.026 12.4392 113.324 12.6872C112.166 12.6872 111.326 12.4529 110.802 11.9844C110.279 11.516 110.003 10.7719 109.975 9.75224L109.913 5.86655H112.621L112.559 9.19419C112.545 10.1312 112.952 10.5997 113.778 10.5997C114.343 10.5997 114.895 10.3792 115.432 9.93826L115.37 5.86655H118.098Z" fill="white"/>
<path d="M99.2933 15.4774L99.438 11.5091L99.2933 5.92855L102.022 5.80453L101.918 11.7571H102.084L105.267 5.86654H107.995L107.85 11.1784L107.995 15.4774H105.267L105.391 11.6951V9.42154H105.246L101.96 15.4774H99.2933Z" fill="white"/>
<path d="M96.7267 5.86655L96.6234 11.6538L96.7267 15.4774H93.9985L94.1225 11.9431L94.0605 7.78873H90.9809L90.8775 11.6538L91.0015 15.4774H88.2526L88.3973 11.9431L88.294 5.86655H96.7267Z" fill="white"/>
<path d="M82.7202 5.74255C83.9189 5.74255 84.8421 6.14904 85.4897 6.962C86.1374 7.77497 86.4612 8.92552 86.4612 10.4137C86.4612 12.0947 86.0409 13.3968 85.2004 14.32C84.3736 15.2294 83.2024 15.6841 81.6867 15.6841C81.232 15.6841 80.7704 15.6428 80.3019 15.5601L80.3639 19.3011H77.6357L77.7804 11.5091L77.6563 6.05258L80.2813 5.82523L80.2606 7.23069H80.4053C81.1218 6.55552 81.8934 6.05947 82.7202 5.74255ZM81.7074 13.886C83.168 13.886 83.8983 12.8801 83.8983 10.8684C83.8983 8.92552 83.2851 7.95409 82.0588 7.95409C81.4663 7.95409 80.8669 8.25034 80.2606 8.84284L80.2399 11.2404L80.2813 13.5759C80.7773 13.7826 81.2527 13.886 81.7074 13.886Z" fill="white"/>
<path d="M66.2922 15.4774L66.4369 11.5091L66.2922 5.92855L69.0204 5.80453L68.9171 11.7571H69.0824L72.2654 5.86654H74.9937L74.849 11.1784L74.9937 15.4774H72.2654L72.3894 11.6951V9.42154H72.2447L68.9584 15.4774H66.2922Z" fill="white"/>
<path d="M59.7109 8.45012C61.1852 10.5032 62.8869 12.6527 64.816 14.8987L64.7747 15.2087C64.0031 15.4017 63.0936 15.5601 62.0464 15.6841L61.7157 15.5188C59.9107 13.1212 58.3054 10.8201 56.8999 8.61547L56.8586 11.261L56.962 15.4774H54.1717L54.3164 11.5091L54.1717 2.16687H57.0033L56.8999 8.34678L60.641 3.44832L61.4057 2.16687H64.4233L59.7109 8.45012Z" fill="white"/>
<path d="M134.53 24.9292L134.861 26.4587L136.576 31.8325H136.742L138.457 26.686L138.809 24.9912H141.165L138.023 33.9614C137.541 35.3393 136.935 36.352 136.204 36.9997C135.488 37.6473 134.406 38.1709 132.959 38.5705L132.753 38.5498C132.284 38.0951 131.898 37.5577 131.595 36.9376L131.678 36.669C132.546 36.5174 133.262 36.29 133.827 35.9869C134.392 35.6975 134.93 35.2359 135.44 34.6021L131.926 25.0532L134.53 24.9292Z" fill="white"/>
<path d="M130.698 24.9912L130.553 30.365L130.677 34.6021H127.949L128.052 30.6957H127.887C127.281 31.1918 126.626 31.5638 125.923 31.8118C124.766 31.8118 123.925 31.5776 123.402 31.1091C122.878 30.6406 122.603 29.8966 122.575 28.8769L122.513 24.9912H125.221L125.159 28.3189C125.145 29.2558 125.551 29.7243 126.378 29.7243C126.943 29.7243 127.494 29.5039 128.032 29.0629L127.97 24.9912H130.698Z" fill="white"/>
<path d="M111.893 34.6021L112.038 30.6337L111.893 25.0532L114.621 24.9292L114.518 30.8818H114.683L117.866 24.9912H120.594L120.45 30.303L120.594 34.6021H117.866L117.99 30.8197V28.5462H117.845L114.559 34.6021H111.893Z" fill="white"/>
<path d="M109.326 24.9912L109.223 30.7784L109.326 34.6021H106.598L106.722 31.0678L106.66 26.9134H103.58L103.477 30.7784L103.601 34.6021H100.852L100.997 31.0678L100.894 24.9912H109.326Z" fill="white"/>
<path d="M95.3197 24.8672C96.5185 24.8672 97.4417 25.2737 98.0893 26.0866C98.7369 26.8996 99.0607 28.0501 99.0607 29.5383C99.0607 31.2193 98.6405 32.5215 97.7999 33.4447C96.9732 34.3541 95.802 34.8088 94.2863 34.8088C93.8316 34.8088 93.37 34.7674 92.9015 34.6848L92.9635 38.4258H90.2352L90.3799 30.6337L90.2559 25.1772L92.8808 24.9499L92.8601 26.3553H93.0048C93.7213 25.6802 94.493 25.1841 95.3197 24.8672ZM94.3069 33.0106C95.7675 33.0106 96.4978 32.0047 96.4978 29.993C96.4978 28.0502 95.8846 27.0787 94.6583 27.0787C94.0658 27.0787 93.4664 27.375 92.8601 27.9675L92.8395 30.365L92.8808 32.7006C93.3769 32.9073 93.8522 33.0106 94.3069 33.0106Z" fill="white"/>
<path d="M78.8917 34.6021L79.0364 30.6337L78.8917 25.0532L81.62 24.9292L81.5166 30.8818H81.682L84.8649 24.9912H87.5932L87.4485 30.303L87.5932 34.6021H84.8649L84.989 30.8197V28.5462H84.8443L81.558 34.6021H78.8917Z" fill="white"/>
<path d="M68.6176 34.6021L68.7416 30.6338L68.6589 25.1772L71.3665 24.9499L71.2631 30.3651L71.3458 34.6021H68.6176ZM77.1743 24.9912L74.0121 29.3316C74.7837 30.5442 75.9067 32.1494 77.381 34.1474V34.4368C76.9263 34.5332 76.0789 34.6572 74.8388 34.8088L74.5494 34.6848C73.3093 32.9211 72.2552 31.2194 71.3871 29.5797V29.3936L73.826 25.9833L74.3221 24.9912H77.1743Z" fill="white"/>
<path d="M64.9326 33.1575L64.6292 34.3247H54.1717V33.1575H64.9326Z" fill="#0EBAB9"/>
<path d="M56.3386 31.5767L56.4203 28.9601L56.3658 25.3623L58.1511 25.2123L58.083 28.7829L58.1375 31.5767H56.3386ZM61.9806 25.2396L59.8955 28.1015C60.4043 28.901 61.1447 29.9595 62.1169 31.2768V31.4676C61.8171 31.5312 61.2583 31.613 60.4406 31.7129L60.2498 31.6312C59.4321 30.4682 58.7371 29.3462 58.1647 28.265V28.1424L59.7728 25.8937L60.0999 25.2396H61.9806Z" fill="#0EBAB9"/>
<path d="M140.188 41.6638H140.646V45.309H140.188V42.5L138.768 45.309H138.308V41.6638H138.768V44.4728L140.188 41.6638Z" fill="white"/>
<path d="M137.749 42.0594H136.79V45.309H136.332V42.0594H135.376V41.6638H137.749V42.0594Z" fill="white"/>
<path d="M135.071 44.1523C135.051 44.5429 134.94 44.8416 134.74 45.0486C134.541 45.2556 134.26 45.359 133.896 45.359C133.531 45.359 133.24 45.2205 133.025 44.9435C132.81 44.6647 132.702 44.2875 132.702 43.8119V43.1509C132.702 42.6769 132.812 42.3022 133.033 42.0269C133.255 41.7515 133.557 41.6138 133.939 41.6138C134.291 41.6138 134.563 41.7198 134.755 41.9317C134.949 42.142 135.054 42.4433 135.071 42.8355H134.607C134.587 42.5384 134.525 42.3264 134.42 42.1996C134.314 42.0727 134.154 42.0093 133.939 42.0093C133.69 42.0093 133.499 42.107 133.366 42.3022C133.232 42.4958 133.165 42.7804 133.165 43.1559V43.8244C133.165 44.1932 133.227 44.4761 133.351 44.6731C133.476 44.87 133.658 44.9685 133.896 44.9685C134.135 44.9685 134.307 44.9092 134.412 44.7907C134.517 44.6722 134.582 44.4594 134.607 44.1523H135.071Z" fill="white"/>
<path d="M132.076 43.8069C132.076 44.3042 131.97 44.6873 131.758 44.956C131.546 45.2247 131.245 45.359 130.855 45.359C130.479 45.359 130.182 45.2289 129.963 44.9685C129.746 44.7065 129.634 44.3368 129.625 43.8594V43.1735C129.625 42.6861 129.733 42.3047 129.948 42.0294C130.164 41.7523 130.464 41.6138 130.85 41.6138C131.234 41.6138 131.532 41.7465 131.746 42.0118C131.961 42.2755 132.071 42.6527 132.076 43.1434V43.8069ZM131.618 43.1685C131.618 42.7829 131.555 42.4967 131.428 42.3097C131.303 42.1212 131.11 42.0269 130.85 42.0269C130.598 42.0269 130.407 42.122 130.276 42.3123C130.148 42.5025 130.083 42.7829 130.081 43.1534V43.8069C130.081 44.179 130.145 44.4628 130.274 44.6581C130.404 44.8533 130.598 44.951 130.855 44.951C131.112 44.951 131.302 44.8608 131.425 44.6806C131.549 44.5003 131.613 44.2241 131.618 43.8519V43.1685Z" fill="white"/>
<path d="M126.421 41.6638L127.372 44.638L128.324 41.6638H128.914V45.309H128.456V43.8895L128.499 42.4675L127.545 45.309H127.194L126.246 42.4775L126.288 43.8895V45.309H125.83V41.6638H126.421Z" fill="white"/>
<path d="M124.556 41.6638H125.014V45.309H124.556V42.5L123.136 45.309H122.676V41.6638H123.136V44.4728L124.556 41.6638Z" fill="white"/>
<path d="M120.811 43.6466H120.493V45.309H120.032V43.6466H119.694L118.888 45.309H118.317L119.326 43.3738L118.397 41.6638H118.938L119.694 43.2461H120.032V41.6638H120.493V43.2461H120.813L121.569 41.6638H122.107L121.181 43.3713L122.187 45.309H121.619L120.811 43.6466Z" fill="white"/>
<path d="M117.28 41.6638H117.739V45.309H117.28V42.5L115.861 45.309H115.4V41.6638H115.861V44.4728L117.28 41.6638Z" fill="white"/>
<path d="M112.581 45.309V41.6638H113.62C113.953 41.6638 114.202 41.7448 114.369 41.9067C114.538 42.0686 114.622 42.3114 114.622 42.6352C114.622 42.8055 114.579 42.9557 114.494 43.0859C114.409 43.216 114.294 43.317 114.149 43.3888C114.316 43.4388 114.447 43.5415 114.544 43.6967C114.643 43.8519 114.692 44.0389 114.692 44.2575C114.692 44.5846 114.602 44.8417 114.422 45.0286C114.243 45.2155 113.988 45.309 113.655 45.309H112.581ZM113.04 43.6041V44.9159H113.666C113.839 44.9159 113.977 44.8592 114.079 44.7457C114.18 44.6305 114.231 44.4695 114.231 44.2625C114.231 43.8236 114.046 43.6041 113.676 43.6041H113.04ZM113.04 43.2185H113.628C113.787 43.2185 113.914 43.1651 114.011 43.0583C114.109 42.9515 114.159 42.8096 114.159 42.6327C114.159 42.4324 114.114 42.2872 114.026 42.1971C113.938 42.1053 113.802 42.0594 113.62 42.0594H113.04V43.2185Z" fill="white"/>
<path d="M111.593 44.9159H112.021L112.016 46.2027H111.557V45.309H109.404V46.2052H108.944L108.941 44.9159H109.209C109.326 44.7674 109.421 44.5437 109.495 44.245C109.57 43.9462 109.617 43.6124 109.637 43.2436L109.707 41.6638H111.593V44.9159ZM109.697 44.9159H111.132V42.0594H110.153L110.1 43.2361C110.08 43.6216 110.034 43.9546 109.963 44.235C109.891 44.5137 109.802 44.7407 109.697 44.9159Z" fill="white"/>
<path d="M108.396 43.6241H107.106V44.9159H108.608V45.309H106.648V41.6638H108.583V42.0594H107.106V43.2311H108.396V43.6241Z" fill="white"/>
<path d="M105.854 45.309H105.394V43.6241H103.927V45.309H103.469V41.6638H103.927V43.2311H105.394V41.6638H105.854V45.309Z" fill="white"/>
<path d="M101.018 41.6638H101.476V45.309H101.018V42.5L99.5981 45.309H99.1375V41.6638H99.5981V44.4728L101.018 41.6638ZM101.065 40.7576C101.065 40.9595 100.996 41.1222 100.857 41.2458C100.721 41.3676 100.54 41.4285 100.317 41.4285C100.093 41.4285 99.9119 41.3668 99.7733 41.2433C99.6348 41.1197 99.5656 40.9579 99.5656 40.7576H99.9436C99.9436 40.8744 99.9753 40.9662 100.039 41.033C100.102 41.098 100.195 41.1306 100.317 41.1306C100.433 41.1306 100.524 41.098 100.589 41.033C100.656 40.9679 100.69 40.8761 100.69 40.7576H101.065Z" fill="white"/>
<path d="M98.409 43.8069C98.409 44.3042 98.303 44.6873 98.0911 44.956C97.8791 45.2247 97.5778 45.359 97.1873 45.359C96.8118 45.359 96.5147 45.2289 96.296 44.9685C96.0791 44.7065 95.9664 44.3368 95.9581 43.8594V43.1735C95.9581 42.6861 96.0657 42.3047 96.281 42.0294C96.4963 41.7523 96.7967 41.6138 97.1823 41.6138C97.5662 41.6138 97.8649 41.7465 98.0786 42.0118C98.2939 42.2755 98.404 42.6527 98.409 43.1434V43.8069ZM97.9509 43.1685C97.9509 42.7829 97.8875 42.4967 97.7606 42.3097C97.6354 42.1212 97.4427 42.0269 97.1823 42.0269C96.9303 42.0269 96.7392 42.122 96.609 42.3123C96.4805 42.5025 96.4154 42.7829 96.4137 43.1534V43.8069C96.4137 44.179 96.478 44.4628 96.6065 44.6581C96.7367 44.8533 96.9303 44.951 97.1873 44.951C97.4443 44.951 97.6346 44.8608 97.7581 44.6806C97.8816 44.5003 97.9459 44.2241 97.9509 43.8519V43.1685Z" fill="white"/>
<path d="M95.2446 45.309H94.7839V43.6241H93.3168V45.309H92.8587V41.6638H93.3168V43.2311H94.7839V41.6638H95.2446V45.309Z" fill="white"/>
<path d="M91.8697 44.9159H92.2978L92.2928 46.2027H91.8347V45.309H89.6817V46.2052H89.221L89.2185 44.9159H89.4864C89.6032 44.7674 89.6983 44.5437 89.7718 44.245C89.8469 43.9462 89.8945 43.6124 89.9145 43.2436L89.9846 41.6638H91.8697V44.9159ZM89.9746 44.9159H91.4091V42.0594H90.4302L90.3776 43.2361C90.3576 43.6216 90.3117 43.9546 90.2399 44.235C90.1682 44.5137 90.0797 44.7407 89.9746 44.9159Z" fill="white"/>
<path d="M88.8505 43.8069C88.8505 44.3042 88.7445 44.6873 88.5325 44.956C88.3206 45.2247 88.0193 45.359 87.6288 45.359C87.2532 45.359 86.9562 45.2289 86.7375 44.9685C86.5205 44.7065 86.4079 44.3368 86.3995 43.8594V43.1735C86.3995 42.6861 86.5072 42.3047 86.7225 42.0294C86.9378 41.7523 87.2382 41.6138 87.6238 41.6138C88.0076 41.6138 88.3064 41.7465 88.52 42.0118C88.7353 42.2755 88.8455 42.6527 88.8505 43.1434V43.8069ZM88.3923 43.1685C88.3923 42.7829 88.3289 42.4967 88.2021 42.3097C88.0769 42.1212 87.8841 42.0269 87.6238 42.0269C87.3717 42.0269 87.1806 42.122 87.0505 42.3123C86.9219 42.5025 86.8568 42.7829 86.8552 43.1534V43.8069C86.8552 44.179 86.9194 44.4628 87.0479 44.6581C87.1781 44.8533 87.3717 44.951 87.6288 44.951C87.8858 44.951 88.0761 44.8608 88.1996 44.6806C88.3231 44.5003 88.3873 44.2241 88.3923 43.8519V43.1685Z" fill="white"/>
<path d="M84.0938 43.882V45.309H83.6357V41.6638H84.7973C85.1361 41.6638 85.4023 41.7657 85.5959 41.9693C85.7895 42.1712 85.8863 42.4408 85.8863 42.7779C85.8863 43.1284 85.7937 43.3988 85.6085 43.5891C85.4249 43.7777 85.1653 43.8753 84.8299 43.882H84.0938ZM84.0938 43.4889H84.7973C85.0009 43.4889 85.157 43.428 85.2655 43.3062C85.374 43.1843 85.4282 43.0099 85.4282 42.7829C85.4282 42.5643 85.3723 42.389 85.2605 42.2572C85.1486 42.1253 84.9951 42.0594 84.7998 42.0594H84.0938V43.4889Z" fill="white"/>
<path d="M82.9271 43.8069C82.9271 44.3042 82.8212 44.6873 82.6092 44.956C82.3972 45.2247 82.096 45.359 81.7054 45.359C81.3299 45.359 81.0328 45.2289 80.8142 44.9685C80.5972 44.7065 80.4845 44.3368 80.4762 43.8594V43.1735C80.4762 42.6861 80.5838 42.3047 80.7992 42.0294C81.0145 41.7523 81.3149 41.6138 81.7004 41.6138C82.0843 41.6138 82.383 41.7465 82.5967 42.0118C82.812 42.2755 82.9221 42.6527 82.9271 43.1434V43.8069ZM82.469 43.1685C82.469 42.7829 82.4056 42.4967 82.2787 42.3097C82.1536 42.1212 81.9608 42.0269 81.7004 42.0269C81.4484 42.0269 81.2573 42.122 81.1271 42.3123C80.9986 42.5025 80.9335 42.7829 80.9318 43.1534V43.8069C80.9318 44.179 80.9961 44.4628 81.1246 44.6581C81.2548 44.8533 81.4484 44.951 81.7054 44.951C81.9625 44.951 82.1527 44.8608 82.2762 44.6806C82.3997 44.5003 82.464 44.2241 82.469 43.8519V43.1685Z" fill="white"/>
<path d="M80.1407 42.0594H78.7062V45.309H78.2455V41.6638H80.1407V42.0594Z" fill="white"/>
<path d="M76.9688 44.3576H75.7371L75.4542 45.309H74.9835L76.1577 41.6638H76.5507L77.7274 45.309H77.2567L76.9688 44.3576ZM75.8573 43.9621H76.8512L76.3529 42.3048L75.8573 43.9621Z" fill="white"/>
<path d="M74.1473 42.6427C74.1473 42.4474 74.0914 42.2931 73.9796 42.1796C73.8695 42.0661 73.7159 42.0093 73.519 42.0093C73.3521 42.0093 73.2127 42.0677 73.1009 42.1846C72.9907 42.3014 72.9356 42.4474 72.9356 42.6227H72.4775C72.4775 42.3239 72.5768 42.0811 72.7754 41.8942C72.974 41.7072 73.2219 41.6138 73.519 41.6138C73.8644 41.6138 74.1323 41.7056 74.3226 41.8892C74.5129 42.0727 74.608 42.3264 74.608 42.6502C74.608 42.8188 74.5638 42.9723 74.4753 43.1109C74.3869 43.2494 74.265 43.3587 74.1098 43.4388C74.472 43.584 74.6531 43.8686 74.6531 44.2925C74.6531 44.623 74.5487 44.8834 74.3401 45.0736C74.1332 45.2639 73.8594 45.359 73.519 45.359C73.3721 45.359 73.2302 45.3357 73.0934 45.2889C72.9582 45.2405 72.8397 45.1679 72.7379 45.0711C72.5342 44.8792 72.4324 44.6213 72.4324 44.2975H72.8906C72.8906 44.4878 72.949 44.6472 73.0658 44.7757C73.1843 44.9042 73.3354 44.9685 73.519 44.9685C73.7243 44.9685 73.8878 44.9084 74.0097 44.7882C74.1332 44.6664 74.1949 44.5045 74.1949 44.3026C74.1949 43.8786 73.9921 43.6608 73.5866 43.6491H73.211V43.2536H73.554C73.7476 43.2536 73.8945 43.201 73.9946 43.0959C74.0964 42.9907 74.1473 42.8397 74.1473 42.6427Z" fill="white"/>
<path d="M70.8151 44.1523C70.7951 44.5429 70.6849 44.8416 70.4846 45.0486C70.286 45.2556 70.0048 45.359 69.641 45.359C69.2754 45.359 68.985 45.2205 68.7697 44.9435C68.5544 44.6647 68.4468 44.2875 68.4468 43.8119V43.1509C68.4468 42.6769 68.5569 42.3022 68.7772 42.0269C68.9992 41.7515 69.3013 41.6138 69.6835 41.6138C70.0357 41.6138 70.3077 41.7198 70.4997 41.9317C70.6933 42.142 70.7984 42.4433 70.8151 42.8355H70.352C70.3319 42.5384 70.2693 42.3264 70.1642 42.1996C70.059 42.0727 69.8988 42.0093 69.6835 42.0093C69.4348 42.0093 69.2437 42.107 69.1102 42.3022C68.9767 42.4958 68.9099 42.7804 68.9099 43.1559V43.8244C68.9099 44.1932 68.9717 44.4761 69.0952 44.6731C69.2204 44.87 69.4023 44.9685 69.641 44.9685C69.8796 44.9685 70.0515 44.9092 70.1567 44.7907C70.2618 44.6722 70.3269 44.4594 70.352 44.1523H70.8151Z" fill="white"/>
<path d="M67.2551 41.6638H67.7132V45.309H67.2551V42.5L65.8356 45.309H65.3749V41.6638H65.8356V44.4728L67.2551 41.6638Z" fill="white"/>
<path d="M62.556 45.309V41.6638H63.5949C63.9271 41.6638 64.1766 41.7448 64.3435 41.9067C64.5121 42.0686 64.5963 42.3114 64.5963 42.6352C64.5963 42.8055 64.5538 42.9557 64.4687 43.0859C64.3835 43.216 64.2684 43.317 64.1232 43.3888C64.2901 43.4388 64.4219 43.5415 64.5187 43.6967C64.6172 43.8519 64.6664 44.0389 64.6664 44.2575C64.6664 44.5846 64.5763 44.8417 64.3961 45.0286C64.2175 45.2155 63.9621 45.309 63.63 45.309H62.556ZM63.0141 43.6041V44.9159H63.64C63.8136 44.9159 63.9513 44.8592 64.0531 44.7457C64.1549 44.6305 64.2058 44.4695 64.2058 44.2625C64.2058 43.8236 64.0205 43.6041 63.65 43.6041H63.0141ZM63.0141 43.2185H63.6024C63.761 43.2185 63.8887 43.1651 63.9855 43.0583C64.084 42.9515 64.1332 42.8096 64.1332 42.6327C64.1332 42.4324 64.089 42.2872 64.0005 42.1971C63.912 42.1053 63.7769 42.0594 63.5949 42.0594H63.0141V43.2185Z" fill="white"/>
<path d="M60.1701 43.882V45.309H59.712V41.6638H60.8736C61.2124 41.6638 61.4786 41.7657 61.6722 41.9693C61.8658 42.1712 61.9626 42.4408 61.9626 42.7779C61.9626 43.1284 61.87 43.3988 61.6848 43.5891C61.5012 43.7777 61.2416 43.8753 60.9062 43.882H60.1701ZM60.1701 43.4889H60.8736C61.0772 43.4889 61.2333 43.428 61.3418 43.3062C61.4503 43.1843 61.5045 43.0099 61.5045 42.7829C61.5045 42.5643 61.4486 42.389 61.3368 42.2572C61.2249 42.1253 61.0714 42.0594 60.8761 42.0594H60.1701V43.4889Z" fill="white"/>
<path d="M58.9109 43.6241H57.6215V44.9159H59.1237V45.309H57.1634V41.6638H59.0986V42.0594H57.6215V43.2311H58.9109V43.6241Z" fill="white"/>
<path d="M56.54 44.1523C56.52 44.5429 56.4098 44.8416 56.2096 45.0486C56.0109 45.2556 55.7297 45.359 55.3659 45.359C55.0004 45.359 54.7099 45.2205 54.4946 44.9435C54.2793 44.6647 54.1717 44.2875 54.1717 43.8119V43.1509C54.1717 42.6769 54.2818 42.3022 54.5022 42.0269C54.7241 41.7515 55.0262 41.6138 55.4084 41.6138C55.7606 41.6138 56.0326 41.7198 56.2246 41.9317C56.4182 42.142 56.5233 42.4433 56.54 42.8355H56.0769C56.0568 42.5384 55.9943 42.3264 55.8891 42.1996C55.784 42.0727 55.6237 42.0093 55.4084 42.0093C55.1597 42.0093 54.9686 42.107 54.8351 42.3022C54.7016 42.4958 54.6348 42.7804 54.6348 43.1559V43.8244C54.6348 44.1932 54.6966 44.4761 54.8201 44.6731C54.9453 44.87 55.1272 44.9685 55.3659 44.9685C55.6045 44.9685 55.7765 44.9092 55.8816 44.7907C55.9867 44.6722 56.0518 44.4594 56.0769 44.1523H56.54Z" fill="white"/>
</svg>
