<svg width="171" height="61" viewBox="0 0 171 61" fill="none" xmlns="http://www.w3.org/2000/svg">
<path d="M60.3307 32.7721C60.2176 30.0576 58.2383 27.8237 55.0431 25.3071C52.3568 23.1299 44.8354 16.9657 44.8354 16.9657C46.9278 15.2974 47.4085 14.7319 49.0202 13.4595C53.9121 9.55733 53.2617 5.8249 52.781 4.41108C51.8479 1.7814 49.1334 0 46.023 0H33.1008H28.011H11.2433C6.29494 0 2.11007 2.79934 0.583159 7.1256C-1.05686 11.8194 0.809367 16.9374 5.58804 20.783C7.70875 22.4796 11.526 25.5334 15.4847 28.7004C14.0709 29.0962 12.6288 29.8314 11.2998 31.1038C9.43358 32.8852 8.47221 35.317 8.58532 37.9749C8.7267 41.3115 10.5364 44.5633 13.7033 47.0798L30.5559 60.5675L56.5134 39.7563C59.1431 37.6073 60.4438 35.2604 60.3307 32.7721ZM33.1008 5.08972H46.023C46.9561 5.08972 47.7761 5.51385 47.9741 6.07938C48.2002 6.67318 47.7478 7.94559 45.8533 9.47255C42.3754 12.2436 36.8898 16.6547 33.1008 19.6802V5.08972ZM8.75497 16.7678C5.72942 14.336 4.45699 11.3387 5.36183 8.76559C6.15356 6.50352 8.44393 5.06144 11.215 5.06144H27.9828V32.1217C22.4123 27.6824 12.6854 19.9064 8.75497 16.7678ZM16.8985 43.0363C14.9191 41.4529 13.7598 39.5018 13.675 37.6922C13.6184 36.5328 14.0144 35.4866 14.8344 34.7231C17.7468 32.0086 20.7158 32.7721 23.7696 35.2321C24.8158 36.0522 26.9083 37.7204 28.011 38.6253V51.9434L16.8985 43.0363ZM53.0637 35.9673L33.0725 51.9434V26.1837C33.8076 25.5899 35.9001 24.1196 37.2291 23.0451C39.4346 21.2637 42.0077 21.1223 44.1568 22.8471C47.3802 25.4203 49.7272 27.5693 52.2154 29.6051C53.9686 31.0472 54.9582 32.2349 54.9865 33.1963C55.0431 34.2424 53.8272 35.3735 53.0637 35.9673Z" fill="#0D2839"/>
<path d="M33.1008 5.08887H46.023C46.9561 5.08887 47.7761 5.51301 47.9741 6.07854C48.2002 6.67234 47.7478 7.94478 45.8533 9.47165C42.3754 12.2428 36.8898 16.6538 33.1008 19.6794V5.08887Z" fill="#EDDCAE"/>
<path d="M8.75512 16.7679C5.72953 14.3361 4.4571 11.3388 5.36194 8.76572C6.15367 6.50361 8.44405 5.06152 11.2151 5.06152H27.9828V32.1219C22.4125 27.6825 12.6855 19.9065 8.75512 16.7679Z" fill="#DA5F2F"/>
<path d="M16.8983 43.0359C14.919 41.4524 13.7597 39.5014 13.6749 37.6917C13.6183 36.5324 14.0142 35.4862 14.8342 34.7227C17.7466 32.0082 20.7156 32.7717 23.7695 35.2317C24.8156 36.0517 26.9081 37.72 28.0109 38.6249V51.9429L16.8983 43.0359Z" fill="#EDDCAE"/>
<path d="M53.0633 35.9671L33.0721 51.9431V26.1835C33.8073 25.5897 35.8997 24.1193 37.2287 23.0448C39.4342 21.2634 42.0074 21.122 44.1564 22.8469C47.3799 25.42 49.7268 27.5691 52.2151 29.6049C53.9682 31.047 54.9579 32.2346 54.9861 33.196C55.0427 34.2422 53.8268 35.3732 53.0633 35.9671Z" fill="#0EBAB9"/>
<path d="M143.058 7.10645L142.883 13.616L143.033 18.7486H139.728L139.854 14.0166H139.653C138.919 14.6175 138.126 15.0682 137.275 15.3686C135.873 15.3686 134.855 15.0849 134.22 14.5174C133.586 13.9499 133.252 13.0485 133.219 11.8134L133.144 7.10645H136.424L136.348 11.1374C136.332 12.2724 136.824 12.8399 137.826 12.8399C138.51 12.8399 139.178 12.5728 139.829 12.0387L139.753 7.10645H143.058Z" fill="#0D2839"/>
<path d="M120.279 18.7485L120.454 13.9414L120.279 7.18147L123.584 7.03125L123.459 14.2419H123.659L127.515 7.10636H130.82L130.644 13.5408L130.82 18.7485H127.515L127.665 14.1668V11.4127H127.49L123.509 18.7485H120.279Z" fill="#0D2839"/>
<path d="M117.17 7.10645L117.045 14.1168L117.17 18.7486H113.865L114.015 14.4673L113.94 9.43488H110.21L110.085 14.1168L110.235 18.7486H106.905L107.08 14.4673L106.955 7.10645H117.17Z" fill="#0D2839"/>
<path d="M100.203 6.95605C101.655 6.95605 102.774 7.44845 103.558 8.43323C104.343 9.41802 104.735 10.8117 104.735 12.6144C104.735 14.6507 104.226 16.2281 103.208 17.3464C102.206 18.448 100.787 18.9988 98.9512 18.9988C98.4004 18.9988 97.8413 18.9487 97.2738 18.8486L97.3489 23.3803H94.044L94.2193 13.9414L94.069 7.33161L97.2487 7.0562L97.2237 8.75871H97.399C98.2669 7.94084 99.2016 7.33995 100.203 6.95605ZM98.9763 16.8206C100.746 16.8206 101.63 15.6021 101.63 13.1652C101.63 10.8117 100.887 9.635 99.4019 9.635C98.6842 9.635 97.9581 9.99387 97.2237 10.7116L97.1987 13.6159L97.2487 16.445C97.8496 16.6954 98.4255 16.8206 98.9763 16.8206Z" fill="#0D2839"/>
<path d="M80.3031 18.7485L80.4784 13.9414L80.3031 7.18147L83.608 7.03125L83.4828 14.2419H83.6831L87.5388 7.10636H90.8436L90.6684 13.5408L90.8436 18.7485H87.5388L87.689 14.1668V11.4127H87.5137L83.5329 18.7485H80.3031Z" fill="#0D2839"/>
<path d="M72.3308 10.2362C74.1168 12.7232 76.1781 15.3271 78.5149 18.0477L78.4648 18.4233C77.5301 18.657 76.4285 18.8489 75.16 18.9991L74.7594 18.7988C72.5728 15.8946 70.6283 13.1071 68.9258 10.4365L68.8757 13.6412L69.0009 18.7488H65.6209L65.7962 13.9417L65.6209 2.625H69.051L68.9258 10.111L73.4575 4.17729L74.3838 2.625H78.0392L72.3308 10.2362Z" fill="#0D2839"/>
<path d="M162.963 30.1992L163.364 32.052L165.442 38.5615H165.642L167.72 32.3274L168.146 30.2743H171L167.194 41.1403C166.61 42.8095 165.876 44.0363 164.991 44.8208C164.123 45.6053 162.813 46.2395 161.06 46.7236L160.81 46.6985C160.243 46.1477 159.775 45.4968 159.408 44.7457L159.508 44.4202C160.56 44.2366 161.428 43.9612 162.112 43.594C162.796 43.2434 163.447 42.6843 164.065 41.9165L159.809 30.3494L162.963 30.1992Z" fill="#0D2839"/>
<path d="M158.321 30.2734L158.145 36.783L158.296 41.9156H154.991L155.116 37.1836H154.916C154.181 37.7845 153.388 38.2352 152.537 38.5356C151.135 38.5356 150.117 38.2519 149.483 37.6844C148.848 37.1169 148.515 36.2155 148.481 34.9804L148.406 30.2734H151.686L151.611 34.3044C151.594 35.4394 152.087 36.0069 153.088 36.0069C153.772 36.0069 154.44 35.7398 155.091 35.2057L155.016 30.2734H158.321Z" fill="#0D2839"/>
<path d="M135.542 41.9165L135.717 37.1094L135.542 30.3494L138.846 30.1992L138.721 37.4098H138.922L142.777 30.2743H146.082L145.907 36.7088L146.082 41.9165H142.777L142.927 37.3347V34.5807H142.752L138.771 41.9165H135.542Z" fill="#0D2839"/>
<path d="M132.432 30.2734L132.307 37.2838L132.432 41.9156H129.128L129.278 37.6343L129.203 32.6019H125.472L125.347 37.2838L125.497 41.9156H122.167L122.343 37.6343L122.217 30.2734H132.432Z" fill="#0D2839"/>
<path d="M115.466 30.123C116.918 30.123 118.036 30.6154 118.82 31.6002C119.605 32.585 119.997 33.9787 119.997 35.7814C119.997 37.8177 119.488 39.3951 118.47 40.5134C117.468 41.615 116.05 42.1658 114.214 42.1658C113.663 42.1658 113.104 42.1157 112.536 42.0156L112.611 46.5473H109.306L109.482 37.1083L109.331 30.4986L112.511 30.2232L112.486 31.9257H112.661C113.529 31.1078 114.464 30.5069 115.466 30.123ZM114.239 39.9876C116.008 39.9876 116.893 38.7691 116.893 36.3322C116.893 33.9787 116.15 32.802 114.664 32.802C113.947 32.802 113.221 33.1609 112.486 33.8786L112.461 36.7829L112.511 39.612C113.112 39.8624 113.688 39.9876 114.239 39.9876Z" fill="#0D2839"/>
<path d="M95.5655 41.9165L95.7407 37.1094L95.5655 30.3494L98.8704 30.1992L98.7452 37.4098H98.9455L102.801 30.2743H106.106L105.931 36.7088L106.106 41.9165H102.801L102.951 37.3347V34.5807H102.776L98.7953 41.9165H95.5655Z" fill="#0D2839"/>
<path d="M83.1199 41.9159L83.2701 37.1088L83.1699 30.499L86.4498 30.2236L86.3246 36.7833L86.4247 41.9159H83.1199ZM93.4852 30.2737L89.6545 35.5315C90.5892 37.0003 91.9496 38.9448 93.7355 41.3651V41.7156C93.1847 41.8324 92.1582 41.9826 90.656 42.1662L90.3055 42.016C88.8033 39.8795 87.5264 37.8182 86.4748 35.8319V35.6066L89.4292 31.4755L90.0301 30.2737H93.4852Z" fill="#0D2839"/>
<path d="M78.6562 40.165L78.2886 41.5789H65.6209V40.165H78.6562Z" fill="#0EBAB9"/>
<path d="M68.2457 38.2514L68.3448 35.0818L68.2787 30.7236L70.4413 30.542L70.3588 34.8672L70.4248 38.2514H68.2457ZM75.0802 30.575L72.5544 34.0418C73.1707 35.0103 74.0677 36.2924 75.2453 37.8882V38.1194C74.8821 38.1964 74.2053 38.2954 73.2148 38.4165L72.9836 38.3175C71.9931 36.9087 71.1512 35.5495 70.4579 34.2399V34.0913L72.4058 31.3674L72.802 30.575H75.0802Z" fill="#0EBAB9"/>
<path d="M169.817 50.4707H170.372V54.8862H169.817V51.4836L168.097 54.8862H167.539V50.4707H168.097V53.8733L169.817 50.4707Z" fill="#0D2839"/>
<path d="M166.863 50.9499H165.701V54.8862H165.146V50.9499H163.988V50.4707H166.863V50.9499Z" fill="#0D2839"/>
<path d="M163.618 53.4853C163.594 53.9584 163.46 54.3202 163.217 54.5709C162.977 54.8216 162.636 54.947 162.195 54.947C161.753 54.947 161.401 54.7792 161.14 54.4436C160.879 54.1059 160.749 53.649 160.749 53.0728V52.2722C160.749 51.698 160.882 51.2441 161.149 50.9105C161.418 50.577 161.784 50.4102 162.247 50.4102C162.674 50.4102 163.003 50.5385 163.236 50.7953C163.47 51.05 163.598 51.415 163.618 51.8901H163.057C163.032 51.5302 162.957 51.2734 162.829 51.1198C162.702 50.9661 162.508 50.8893 162.247 50.8893C161.946 50.8893 161.714 51.0076 161.553 51.2441C161.391 51.4787 161.31 51.8234 161.31 52.2783V53.088C161.31 53.5348 161.385 53.8775 161.534 54.116C161.686 54.3546 161.906 54.4739 162.195 54.4739C162.485 54.4739 162.693 54.4021 162.82 54.2586C162.948 54.115 163.026 53.8573 163.057 53.4853H163.618Z" fill="#0D2839"/>
<path d="M159.991 53.0668C159.991 53.6692 159.862 54.1332 159.606 54.4587C159.349 54.7842 158.984 54.947 158.511 54.947C158.056 54.947 157.696 54.7893 157.431 54.4739C157.168 54.1565 157.032 53.7087 157.022 53.1304V52.2995C157.022 51.7091 157.152 51.2472 157.413 50.9136C157.674 50.578 158.038 50.4102 158.505 50.4102C158.97 50.4102 159.332 50.5709 159.591 50.8923C159.851 51.2118 159.985 51.6687 159.991 52.2631V53.0668ZM159.436 52.2934C159.436 51.8264 159.359 51.4797 159.205 51.2532C159.054 51.0248 158.82 50.9105 158.505 50.9105C158.2 50.9105 157.968 51.0258 157.81 51.2563C157.655 51.4867 157.576 51.8264 157.574 52.2752V53.0668C157.574 53.5176 157.652 53.8613 157.807 54.0979C157.965 54.3344 158.2 54.4527 158.511 54.4527C158.822 54.4527 159.053 54.3435 159.202 54.1251C159.352 53.9068 159.43 53.5722 159.436 53.1213V52.2934Z" fill="#0D2839"/>
<path d="M153.14 50.4707L154.292 54.0735L155.445 50.4707H156.161V54.8862H155.606V53.1667L155.657 51.4442L154.502 54.8862H154.077L152.928 51.4563L152.979 53.1667V54.8862H152.424V50.4707H153.14Z" fill="#0D2839"/>
<path d="M150.881 50.4707H151.436V54.8862H150.881V51.4836L149.161 54.8862H148.603V50.4707H149.161V53.8733L150.881 50.4707Z" fill="#0D2839"/>
<path d="M146.344 52.8726H145.959V54.8862H145.401V52.8726H144.991L144.015 54.8862H143.323L144.546 52.542L143.42 50.4707H144.076L144.991 52.3873H145.401V50.4707H145.959V52.3873H146.347L147.263 50.4707H147.915L146.793 52.539L148.012 54.8862H147.323L146.344 52.8726Z" fill="#0D2839"/>
<path d="M142.068 50.4707H142.623V54.8862H142.068V51.4836L140.348 54.8862H139.79V50.4707H140.348V53.8733L142.068 50.4707Z" fill="#0D2839"/>
<path d="M136.376 54.8862V50.4707H137.634C138.037 50.4707 138.339 50.5688 138.541 50.7649C138.745 50.961 138.847 51.2551 138.847 51.6474C138.847 51.8536 138.796 52.0355 138.693 52.1932C138.59 52.3509 138.45 52.4733 138.274 52.5602C138.476 52.6208 138.636 52.7452 138.753 52.9332C138.873 53.1212 138.932 53.3477 138.932 53.6125C138.932 54.0088 138.823 54.3201 138.605 54.5466C138.388 54.773 138.079 54.8862 137.677 54.8862H136.376ZM136.931 52.821V54.4101H137.689C137.899 54.4101 138.066 54.3414 138.189 54.2039C138.313 54.0644 138.374 53.8693 138.374 53.6186C138.374 53.0869 138.15 52.821 137.701 52.821H136.931ZM136.931 52.354H137.643C137.835 52.354 137.99 52.2893 138.107 52.1599C138.227 52.0305 138.286 51.8586 138.286 51.6443C138.286 51.4017 138.233 51.2258 138.126 51.1167C138.018 51.0055 137.855 50.9499 137.634 50.9499H136.931V52.354Z" fill="#0D2839"/>
<path d="M135.178 54.4101H135.696L135.69 55.9689H135.135V54.8862H132.527V55.9719H131.969L131.966 54.4101H132.291C132.432 54.2302 132.547 53.9593 132.636 53.5974C132.727 53.2355 132.785 52.8311 132.809 52.3843L132.894 50.4707H135.178V54.4101ZM132.882 54.4101H134.62V50.9499H133.434L133.37 52.3752C133.346 52.8422 133.29 53.2456 133.203 53.5852C133.116 53.9229 133.009 54.1978 132.882 54.4101Z" fill="#0D2839"/>
<path d="M131.305 52.8453H129.743V54.4101H131.563V54.8862H129.188V50.4707H131.532V50.9499H129.743V52.3691H131.305V52.8453Z" fill="#0D2839"/>
<path d="M128.227 54.8862H127.669V52.8453H125.892V54.8862H125.337V50.4707H125.892V52.3691H127.669V50.4707H128.227V54.8862Z" fill="#0D2839"/>
<path d="M122.368 50.4709H122.923V54.8864H122.368V51.4838L120.648 54.8864H120.09V50.4709H120.648V53.8735L122.368 50.4709ZM122.425 49.373C122.425 49.6177 122.341 49.8148 122.174 49.9644C122.008 50.112 121.79 50.1858 121.519 50.1858C121.248 50.1858 121.028 50.111 120.861 49.9614C120.693 49.8118 120.609 49.6157 120.609 49.373H121.067C121.067 49.5146 121.105 49.6258 121.182 49.7066C121.259 49.7855 121.371 49.8249 121.519 49.8249C121.66 49.8249 121.77 49.7855 121.849 49.7066C121.93 49.6278 121.97 49.5166 121.97 49.373H122.425Z" fill="#0D2839"/>
<path d="M119.208 53.0668C119.208 53.6692 119.079 54.1332 118.823 54.4587C118.566 54.7842 118.201 54.947 117.728 54.947C117.273 54.947 116.913 54.7893 116.648 54.4739C116.385 54.1565 116.249 53.7087 116.239 53.1304V52.2995C116.239 51.7091 116.369 51.2472 116.63 50.9136C116.891 50.578 117.255 50.4102 117.722 50.4102C118.187 50.4102 118.549 50.5709 118.808 50.8923C119.068 51.2118 119.202 51.6687 119.208 52.2631V53.0668ZM118.653 52.2934C118.653 51.8264 118.576 51.4797 118.422 51.2532C118.271 51.0248 118.037 50.9105 117.722 50.9105C117.417 50.9105 117.185 51.0258 117.027 51.2563C116.872 51.4867 116.793 51.8264 116.791 52.2752V53.0668C116.791 53.5176 116.869 53.8613 117.024 54.0979C117.182 54.3344 117.417 54.4527 117.728 54.4527C118.039 54.4527 118.27 54.3435 118.419 54.1251C118.569 53.9068 118.647 53.5722 118.653 53.1213V52.2934Z" fill="#0D2839"/>
<path d="M115.375 54.8862H114.817V52.8453H113.039V54.8862H112.484V50.4707H113.039V52.3691H114.817V50.4707H115.375V54.8862Z" fill="#0D2839"/>
<path d="M111.286 54.4101H111.805L111.799 55.9689H111.244V54.8862H108.636V55.9719H108.078L108.075 54.4101H108.399C108.541 54.2302 108.656 53.9593 108.745 53.5974C108.836 53.2355 108.894 52.8311 108.918 52.3843L109.003 50.4707H111.286V54.4101ZM108.991 54.4101H110.728V50.9499H109.543L109.479 52.3752C109.455 52.8422 109.399 53.2456 109.312 53.5852C109.225 53.9229 109.118 54.1978 108.991 54.4101Z" fill="#0D2839"/>
<path d="M107.629 53.0668C107.629 53.6692 107.501 54.1332 107.244 54.4587C106.987 54.7842 106.622 54.947 106.149 54.947C105.694 54.947 105.334 54.7893 105.07 54.4739C104.807 54.1565 104.67 53.7087 104.66 53.1304V52.2995C104.66 51.7091 104.791 51.2472 105.051 50.9136C105.312 50.578 105.676 50.4102 106.143 50.4102C106.608 50.4102 106.97 50.5709 107.229 50.8923C107.49 51.2118 107.623 51.6687 107.629 52.2631V53.0668ZM107.074 52.2934C107.074 51.8264 106.997 51.4797 106.844 51.2532C106.692 51.0248 106.459 50.9105 106.143 50.9105C105.838 50.9105 105.606 51.0258 105.449 51.2563C105.293 51.4867 105.214 51.8264 105.212 52.2752V53.0668C105.212 53.5176 105.29 53.8613 105.446 54.0979C105.603 54.3344 105.838 54.4527 106.149 54.4527C106.461 54.4527 106.691 54.3435 106.841 54.1251C106.99 53.9068 107.068 53.5722 107.074 53.1213V52.2934Z" fill="#0D2839"/>
<path d="M101.867 53.1576V54.8862H101.312V50.4707H102.719C103.13 50.4707 103.452 50.594 103.687 50.8407C103.921 51.0853 104.038 51.4118 104.038 51.8202C104.038 52.2448 103.926 52.5723 103.702 52.8028C103.479 53.0313 103.165 53.1495 102.759 53.1576H101.867ZM101.867 52.6815H102.719C102.966 52.6815 103.155 52.6077 103.286 52.4601C103.418 52.3125 103.484 52.1013 103.484 51.8263C103.484 51.5614 103.416 51.3492 103.28 51.1894C103.145 51.0297 102.959 50.9499 102.722 50.9499H101.867V52.6815Z" fill="#0D2839"/>
<path d="M100.454 53.0668C100.454 53.6692 100.326 54.1332 100.069 54.4587C99.812 54.7842 99.447 54.947 98.974 54.947C98.5191 54.947 98.1592 54.7893 97.8943 54.4739C97.6315 54.1565 97.495 53.7087 97.4849 53.1304V52.2995C97.4849 51.7091 97.6153 51.2472 97.8761 50.9136C98.1369 50.578 98.5009 50.4102 98.9679 50.4102C99.4329 50.4102 99.7948 50.5709 100.054 50.8923C100.314 51.2118 100.448 51.6687 100.454 52.2631V53.0668ZM99.8989 52.2934C99.8989 51.8264 99.8221 51.4797 99.6684 51.2532C99.5168 51.0248 99.2833 50.9105 98.9679 50.9105C98.6626 50.9105 98.4311 51.0258 98.2734 51.2563C98.1177 51.4867 98.0389 51.8264 98.0369 52.2752V53.0668C98.0369 53.5176 98.1147 53.8613 98.2704 54.0979C98.4281 54.3344 98.6626 54.4527 98.974 54.4527C99.2853 54.4527 99.5158 54.3435 99.6654 54.1251C99.815 53.9068 99.8928 53.5722 99.8989 53.1213V52.2934Z" fill="#0D2839"/>
<path d="M97.0785 50.9499H95.3408V54.8862H94.7828V50.4707H97.0785V50.9499Z" fill="#0D2839"/>
<path d="M93.2362 53.7338H91.7442L91.4015 54.8862H90.8314L92.2537 50.4707H92.7298L94.1551 54.8862H93.585L93.2362 53.7338ZM91.8898 53.2547H93.0937L92.4902 51.2471L91.8898 53.2547Z" fill="#0D2839"/>
<path d="M89.8184 51.6566C89.8184 51.42 89.7507 51.233 89.6152 51.0955C89.4818 50.9581 89.2958 50.8893 89.0572 50.8893C88.855 50.8893 88.6862 50.9601 88.5507 51.1016C88.4173 51.2431 88.3506 51.42 88.3506 51.6323H87.7956C87.7956 51.2704 87.9159 50.9763 88.1565 50.7498C88.3971 50.5234 88.6973 50.4102 89.0572 50.4102C89.4757 50.4102 89.8002 50.5214 90.0307 50.7437C90.2612 50.9661 90.3764 51.2734 90.3764 51.6657C90.3764 51.8699 90.3228 52.0559 90.2157 52.2237C90.1085 52.3915 89.9609 52.5239 89.7729 52.621C90.2116 52.7968 90.431 53.1416 90.431 53.6551C90.431 54.0554 90.3046 54.3708 90.0519 54.6013C89.8012 54.8318 89.4696 54.947 89.0572 54.947C88.8793 54.947 88.7074 54.9187 88.5416 54.8621C88.3779 54.8034 88.2343 54.7155 88.111 54.5982C87.8644 54.3657 87.741 54.0534 87.741 53.6612H88.296C88.296 53.8916 88.3668 54.0847 88.5083 54.2404C88.6518 54.3961 88.8348 54.4739 89.0572 54.4739C89.3059 54.4739 89.504 54.4011 89.6516 54.2556C89.8012 54.108 89.876 53.9119 89.876 53.6672C89.876 53.1537 89.6304 52.8898 89.1391 52.8757H88.6842V52.3965H89.0997C89.3342 52.3965 89.5121 52.3329 89.6334 52.2055C89.7567 52.0781 89.8184 51.8951 89.8184 51.6566Z" fill="#0D2839"/>
<path d="M85.7819 53.4853C85.7576 53.9584 85.6242 54.3202 85.3816 54.5709C85.141 54.8216 84.8003 54.947 84.3596 54.947C83.9168 54.947 83.565 54.7792 83.3042 54.4436C83.0434 54.1059 82.913 53.649 82.913 53.0728V52.2722C82.913 51.698 83.0465 51.2441 83.3133 50.9105C83.5822 50.577 83.9482 50.4102 84.4112 50.4102C84.8377 50.4102 85.1673 50.5385 85.3998 50.7953C85.6343 51.05 85.7617 51.415 85.7819 51.8901H85.2209C85.1966 51.5302 85.1208 51.2734 84.9934 51.1198C84.866 50.9661 84.672 50.8893 84.4112 50.8893C84.1099 50.8893 83.8784 51.0076 83.7167 51.2441C83.5549 51.4787 83.4741 51.8234 83.4741 52.2783V53.088C83.4741 53.5348 83.5489 53.8775 83.6985 54.116C83.8501 54.3546 84.0705 54.4739 84.3596 54.4739C84.6487 54.4739 84.857 54.4021 84.9843 54.2586C85.1117 54.115 85.1905 53.8573 85.2209 53.4853H85.7819Z" fill="#0D2839"/>
<path d="M81.4695 50.4707H82.0244V54.8862H81.4695V51.4836L79.75 54.8862H79.192V50.4707H79.75V53.8733L81.4695 50.4707Z" fill="#0D2839"/>
<path d="M75.7772 54.8862V50.4707H77.0358C77.4381 50.4707 77.7404 50.5688 77.9425 50.7649C78.1467 50.961 78.2488 51.2551 78.2488 51.6474C78.2488 51.8536 78.1973 52.0355 78.0942 52.1932C77.9911 52.3509 77.8516 52.4733 77.6757 52.5602C77.8778 52.6208 78.0376 52.7452 78.1548 52.9332C78.2741 53.1212 78.3337 53.3477 78.3337 53.6125C78.3337 54.0088 78.2246 54.3201 78.0062 54.5466C77.7899 54.773 77.4806 54.8862 77.0782 54.8862H75.7772ZM76.3322 52.821V54.4101H77.0904C77.3006 54.4101 77.4674 54.3414 77.5907 54.2039C77.7141 54.0644 77.7757 53.8693 77.7757 53.6186C77.7757 53.0869 77.5513 52.821 77.1025 52.821H76.3322ZM76.3322 52.354H77.0449C77.2369 52.354 77.3916 52.2893 77.5089 52.1599C77.6281 52.0305 77.6878 51.8586 77.6878 51.6443C77.6878 51.4017 77.6342 51.2258 77.5271 51.1167C77.4199 51.0055 77.2561 50.9499 77.0358 50.9499H76.3322V52.354Z" fill="#0D2839"/>
<path d="M72.8871 53.1576V54.8862H72.3322V50.4707H73.7393C74.1497 50.4707 74.4722 50.594 74.7067 50.8407C74.9412 51.0853 75.0585 51.4118 75.0585 51.8202C75.0585 52.2448 74.9463 52.5723 74.7219 52.8028C74.4995 53.0313 74.1851 53.1495 73.7787 53.1576H72.8871ZM72.8871 52.6815H73.7393C73.986 52.6815 74.175 52.6077 74.3064 52.4601C74.4378 52.3125 74.5035 52.1013 74.5035 51.8263C74.5035 51.5614 74.4358 51.3492 74.3003 51.1894C74.1649 51.0297 73.9789 50.9499 73.7423 50.9499H72.8871V52.6815Z" fill="#0D2839"/>
<path d="M71.3617 52.8453H69.7999V54.4101H71.6195V54.8862H69.2449V50.4707H71.5892V50.9499H69.7999V52.3691H71.3617V52.8453Z" fill="#0D2839"/>
<path d="M68.4898 53.4853C68.4655 53.9584 68.3321 54.3202 68.0895 54.5709C67.8489 54.8216 67.5082 54.947 67.0675 54.947C66.6247 54.947 66.2729 54.7792 66.0121 54.4436C65.7513 54.1059 65.6209 53.649 65.6209 53.0728V52.2722C65.6209 51.698 65.7543 51.2441 66.0212 50.9105C66.2901 50.577 66.6561 50.4102 67.119 50.4102C67.5456 50.4102 67.8752 50.5385 68.1077 50.7953C68.3422 51.05 68.4696 51.415 68.4898 51.8901H67.9288C67.9045 51.5302 67.8287 51.2734 67.7013 51.1198C67.5739 50.9661 67.3798 50.8893 67.119 50.8893C66.8178 50.8893 66.5863 51.0076 66.4246 51.2441C66.2628 51.4787 66.182 51.8234 66.182 52.2783V53.088C66.182 53.5348 66.2568 53.8775 66.4064 54.116C66.558 54.3546 66.7784 54.4739 67.0675 54.4739C67.3566 54.4739 67.5648 54.4021 67.6922 54.2586C67.8196 54.115 67.8984 53.8573 67.9288 53.4853H68.4898Z" fill="#0D2839"/>
</svg>
