<svg width="361" height="340" viewBox="0 0 361 340" fill="none" xmlns="http://www.w3.org/2000/svg">
<path d="M1.5 147.5C80 154.5 123.518 100.916 159 73C227 19.5 294.128 8 355 8" stroke="#0EBAB9" stroke-width="2" stroke-linecap="round"/>
<path d="M1.5 147.5C32 180 105.5 175 140.5 170" stroke="#0EBAB9" stroke-width="2" stroke-linecap="round"/>
<path d="M1.5 147.5C36.5265 218.007 167.864 324.417 355 332" stroke="#0EBAB9" stroke-width="2" stroke-linecap="round"/>
<g clip-path="url(#clip0_266_254)">
<path d="M357.56 8.00004C357.56 8.2868 357.451 8.57351 357.232 8.79214L350.353 15.6718C349.915 16.1094 349.205 16.1094 348.768 15.6718C348.33 15.2343 348.33 14.5249 348.768 14.0872L354.855 8.00004L348.768 1.91282C348.331 1.47518 348.331 0.765844 348.768 0.328423C349.206 -0.109425 349.915 -0.109425 350.353 0.328422L357.232 7.20795C357.451 7.42668 357.56 7.7134 357.56 8.00004Z" fill="#0EBAB9"/>
</g>
<g clip-path="url(#clip1_266_254)">
<path d="M143.56 170C143.56 170.287 143.451 170.574 143.232 170.792L136.353 177.672C135.915 178.109 135.205 178.109 134.768 177.672C134.33 177.234 134.33 176.525 134.768 176.087L140.855 170L134.768 163.913C134.331 163.475 134.331 162.766 134.768 162.328C135.206 161.891 135.915 161.891 136.353 162.328L143.232 169.208C143.451 169.427 143.56 169.713 143.56 170Z" fill="#0EBAB9"/>
</g>
<g clip-path="url(#clip2_266_254)">
<path d="M357.56 332C357.56 332.287 357.451 332.574 357.232 332.792L350.353 339.672C349.915 340.109 349.205 340.109 348.768 339.672C348.33 339.234 348.33 338.525 348.768 338.087L354.855 332L348.768 325.913C348.331 325.475 348.331 324.766 348.768 324.328C349.206 323.891 349.915 323.891 350.353 324.328L357.232 331.208C357.451 331.427 357.56 331.713 357.56 332Z" fill="#0EBAB9"/>
</g>
<defs>
<clipPath id="clip0_266_254">
<rect width="16" height="16" fill="white" transform="translate(345 16) rotate(-90)"/>
</clipPath>
<clipPath id="clip1_266_254">
<rect width="16" height="16" fill="white" transform="translate(131 178) rotate(-90)"/>
</clipPath>
<clipPath id="clip2_266_254">
<rect width="16" height="16" fill="white" transform="translate(345 340) rotate(-90)"/>
</clipPath>
</defs>
</svg>
