<svg width="26" height="26" viewBox="0 0 26 26" fill="none" xmlns="http://www.w3.org/2000/svg">
<g clip-path="url(#clip0_80_946)">
<path d="M6.88813 11.0514H8.44488V15.8144C8.44488 16.7118 9.17501 17.4422 10.0726 17.4422H20.5304C21.4277 17.4422 22.1581 16.7118 22.1581 15.8144V11.0514H24.2627C24.5536 11.0514 24.8102 10.8675 24.9327 10.5709C25.0656 10.2499 25.0065 9.88655 24.7871 9.66753L16.3685 1.18726C15.9232 0.742571 15.2121 0.727996 14.7805 1.15816L6.36518 9.68083C6.14586 9.89985 6.08609 10.2584 6.21624 10.5733C6.33847 10.8681 6.59573 11.0514 6.88813 11.0514ZM16.7286 16.5103H14.3231V12.6567C14.3231 12.5457 14.4135 12.4553 14.5245 12.4553H16.5271C16.6381 12.4553 16.7285 12.5457 16.7285 12.6567V16.5103H16.7286ZM21.2262 15.8144C21.2262 16.1979 20.9141 16.5103 20.5304 16.5103H17.6605V12.6567C17.6605 12.0318 17.152 11.5234 16.5272 11.5234H14.5245C13.8996 11.5234 13.3912 12.0318 13.3912 12.6567V16.5103H10.0726C9.68892 16.5103 9.37676 16.1978 9.37676 15.8144V10.7262L15.5734 4.52527L21.339 10.2912C21.2717 10.3719 21.2262 10.472 21.2262 10.5854V15.8144ZM15.4415 1.81583C15.5125 1.74423 15.6374 1.7746 15.7081 1.84493L23.9229 10.1195H22.4854L16.2323 3.86638C15.8701 3.5036 15.2807 3.5036 14.9185 3.86638L8.66572 10.1195H7.24212L15.4415 1.81583Z" fill="white"/>
<path d="M1.60789 14.6314C1.42589 14.4494 1.13105 14.4494 0.949051 14.6314C0.767051 14.8134 0.767051 15.1082 0.949051 15.2902L2.64626 16.9871C2.85162 17.1928 3.12462 17.3056 3.41524 17.3056C3.70556 17.3056 3.97856 17.1928 4.18392 16.9871L5.88113 15.2902C6.06313 15.1082 6.06313 14.8134 5.88113 14.6314C5.69913 14.4494 5.40429 14.4494 5.22229 14.6314L3.88091 15.9722V2.33452L5.22199 3.6759C5.31299 3.7669 5.43253 3.8124 5.55171 3.8124C5.67089 3.8124 5.79013 3.7669 5.88113 3.6759C6.06313 3.4939 6.06313 3.19907 5.88113 3.01707L4.18387 1.31955C4.07799 1.21337 3.94875 1.14283 3.8156 1.08479C3.57998 0.982007 3.16992 1.03629 3.01448 1.08479C2.87716 1.12765 2.75209 1.21372 2.64621 1.31955L0.949 3.01707C0.767 3.19907 0.767 3.4939 0.949 3.6759C1.131 3.8579 1.42584 3.8579 1.60784 3.6759L2.94892 2.33452V15.9722L1.60789 14.6314Z" fill="white"/>
<path d="M8.0709 25.0191C8.1619 25.1101 8.28113 25.1556 8.40032 25.1556C8.51985 25.1556 8.63904 25.1101 8.72973 25.0191C8.91173 24.8371 8.91173 24.5422 8.73004 24.3602L7.38896 23.0188H23.8753L22.5342 24.3602C22.3522 24.5422 22.3522 24.8371 22.5342 25.0191C22.6252 25.1101 22.7444 25.1556 22.8636 25.1556C22.9829 25.1556 23.102 25.1101 23.193 25.0191L24.89 23.3222C24.9983 23.2141 25.042 23.1136 25.1329 22.9481C25.2097 22.8083 25.2016 22.3016 25.1326 22.1573C25.0563 21.9977 24.9983 21.8922 24.8903 21.7842L23.193 20.0873C23.011 19.9053 22.7162 19.9053 22.5342 20.0873C22.3522 20.2693 22.3522 20.5642 22.5342 20.7462L23.8753 22.0869H7.38901L8.72978 20.7462C8.91178 20.5642 8.91178 20.2693 8.73009 20.0873C8.54809 19.9053 8.25295 19.9053 8.07095 20.0873L6.37374 21.7842C6.16838 21.9899 6.05554 22.2629 6.05554 22.5529C6.05554 22.8435 6.16868 23.1171 6.37374 23.3216L8.0709 25.0191Z" fill="white"/>
</g>
<defs>
<clipPath id="clip0_80_946">
<rect width="26" height="26" fill="white"/>
</clipPath>
</defs>
</svg>
