<svg width="40" height="40" viewBox="0 0 40 40" fill="none" xmlns="http://www.w3.org/2000/svg">
<g clip-path="url(#clip0_80_1033)">
<path d="M39.9998 3.972C40.0022 3.42877 39.786 2.90739 39.3998 2.52534L37.4745 0.600025C37.0942 0.215607 36.5759 -0.000459962 36.0352 7.35213e-07H36.0285C35.4911 0.000329804 34.9764 0.216528 34.5998 0.600025L25.8666 9.33326H8.66675V2.00002C8.66675 0.895398 7.77129 7.35213e-07 6.66673 7.35213e-07H5.33341C2.3893 0.00329143 0.00341276 2.38917 0.00012207 5.33329V34.8337C0.16696 37.7554 2.60049 40.0301 5.52677 39.9997H37.9998C39.1044 39.9997 39.9998 39.1043 39.9998 37.9997V11.3333C39.9998 10.2287 39.1044 9.33326 37.9998 9.33326H35.4665L39.3998 5.39996C39.7825 5.02324 39.9986 4.50904 39.9998 3.972ZM23.8533 16.6666C23.7122 16.6858 23.5704 16.6362 23.472 16.5332C23.3727 16.4346 23.3237 16.2963 23.3386 16.1572L23.5913 13.8906C23.6019 13.8432 23.6152 13.7964 23.6313 13.7506L26.2573 16.3766C26.214 16.3859 26.1746 16.4073 26.1293 16.4126L23.8533 16.6666ZM27.3459 15.5779L24.4286 12.6599L31.6952 5.39331L34.6112 8.3086L27.3459 15.5779ZM32.6352 4.44994L33.6239 3.46194L36.5385 6.37723L35.5505 7.36588L32.6352 4.44994ZM1.33344 5.33329C1.33568 3.1251 3.12523 1.3355 5.33341 1.33332H6.66673C7.0349 1.33332 7.33343 1.63179 7.33343 1.99995V28.6664C7.33343 29.0346 7.03496 29.333 6.66673 29.333H5.33341C3.80186 29.3326 2.34434 29.9918 1.33344 31.1423V5.33329ZM37.9998 10.6666C38.368 10.6666 38.6665 10.965 38.6665 11.3333V37.9997C38.6665 38.3679 38.3681 38.6664 37.9998 38.6664H5.52677C3.32596 38.7034 1.48225 37.0092 1.33344 34.8131V34.6664C1.33568 32.4582 3.12523 30.6687 5.33341 30.6664H6.66673C7.77129 30.6664 8.66669 29.771 8.66669 28.6665V10.6666H24.5332L23.0192 12.1806C22.5966 12.597 22.3307 13.1466 22.2666 13.7365L22.0139 16.0078C21.9931 16.2294 22.0142 16.4527 22.0759 16.6665H10.6667C10.2985 16.6665 10 16.965 10 17.3332C10 17.7014 10.2985 17.9998 10.6667 17.9998H12.6667V35.9997C12.6667 36.3679 12.9652 36.6664 13.3334 36.6664C13.7016 36.6664 14.0001 36.3679 14.0001 35.9997V26.6664H21.3333V31.9997H16.6667C16.2985 31.9997 16.0001 32.2982 16.0001 32.6664C16.0001 33.0345 16.2985 33.3331 16.6667 33.3331H29.9999C30.7363 33.3331 31.3332 32.7361 31.3332 31.9997V21.9999C31.3332 21.6317 31.0348 21.3332 30.6666 21.3332C30.2984 21.3332 29.9999 21.6316 29.9999 21.9999V25.3331H14V17.9999H23.8053C23.8703 18 23.9354 17.9965 24 17.9892L26.2779 17.7299C26.8561 17.6643 27.3958 17.4074 27.8113 16.9999L34.1366 10.6666H37.9998V10.6666ZM29.9999 26.6664V31.9997H22.6666V26.6664H29.9999ZM38.4598 4.45461L37.4812 5.43392L34.5665 2.51929L35.5458 1.53998C35.674 1.40848 35.8496 1.33398 36.0332 1.33332C36.2201 1.33378 36.399 1.40921 36.5298 1.54268L38.4578 3.46668C38.5919 3.5987 38.6671 3.77916 38.6665 3.96732C38.6659 4.15094 38.5914 4.3266 38.4598 4.45461Z" fill="#0EBAB9"/>
</g>
<defs>
<clipPath id="clip0_80_1033">
<rect width="40" height="40" fill="white"/>
</clipPath>
</defs>
</svg>
