<svg width="40" height="40" viewBox="0 0 40 40" fill="none" xmlns="http://www.w3.org/2000/svg">
<path d="M39.8126 13.3651L32.0549 5.60722C31.8054 5.35769 31.401 5.35769 31.1514 5.60722L27.2725 9.48611C27.1527 9.60587 27.0854 9.76837 27.0854 9.93782C27.0854 10.1073 27.1527 10.2698 27.2725 10.3895L27.6594 10.7765L26.7702 11.6655C26.193 12.2426 25.2973 12.4001 24.5415 12.057C23.8329 11.7354 23.0452 11.5655 22.2633 11.5655C21.3349 11.5655 20.4277 11.7985 19.6216 12.2399C19.2854 12.1571 18.9404 12.1147 18.592 12.1147C18.0881 12.1147 17.5932 12.2016 17.121 12.3733C16.367 12.6472 15.5588 12.4774 15.0114 11.9302L13.4147 10.3334L13.6049 10.1433C13.7247 10.0235 13.7919 9.86103 13.7919 9.69158C13.7919 9.52212 13.7247 9.35962 13.6049 9.23986L9.72602 5.36098C9.47641 5.11145 9.07204 5.11145 8.82251 5.36098L0.187089 13.9964C-0.0623629 14.2459 -0.0623629 14.6504 0.187089 14.8998L4.06589 18.7787C4.18574 18.8986 4.34816 18.9658 4.51769 18.9658C4.68722 18.9658 4.84956 18.8986 4.96948 18.7787L5.20081 18.5474L6.3269 19.6735C6.61104 19.9576 6.79939 20.3124 6.8715 20.6993C7.24541 22.7058 8.20634 24.5299 9.65039 25.9748L9.8625 26.1869C9.45516 26.6159 9.2311 27.1748 9.2311 27.7685C9.2311 28.3826 9.47032 28.9601 9.90453 29.3944C10.3528 29.8426 10.9415 30.0667 11.5304 30.0667C11.5687 30.0667 11.6069 30.0657 11.6453 30.0637C11.6142 30.6902 11.8373 31.327 12.3147 31.8045C12.749 32.2388 13.3264 32.4779 13.9405 32.4779C13.9576 32.4779 13.9747 32.4771 13.9918 32.4767C13.9786 33.0821 14.202 33.6917 14.6629 34.1527C15.0972 34.5871 15.6747 34.8261 16.2889 34.8261C16.903 34.8261 17.4803 34.5869 17.9147 34.1527C17.9513 34.1161 17.9857 34.0783 18.0194 34.04C18.2456 34.1189 18.4848 34.1608 18.7266 34.1608C19.301 34.1608 19.8407 33.937 20.2454 33.531C20.4608 33.3157 20.6242 33.0624 20.7306 32.7865L20.796 32.8519C21.2147 33.2706 21.7646 33.48 22.3145 33.48C22.8645 33.48 23.4144 33.2706 23.833 32.8519C24.0555 32.6294 24.2227 32.3667 24.3287 32.0802C24.7034 32.3528 25.1471 32.4893 25.591 32.4893C26.1409 32.4893 26.6912 32.28 27.1102 31.8614C27.5158 31.4559 27.7391 30.9164 27.7391 30.3423C27.7391 30.1689 27.7183 29.9988 27.6787 29.8343C28.0879 29.7512 28.4638 29.5504 28.7654 29.2483C29.171 28.8428 29.3943 28.3035 29.3943 27.7298C29.3943 27.2779 29.2551 26.8476 28.998 26.4869L29.5105 25.9744C30.9714 24.5128 31.9364 22.6658 32.3015 20.6329C32.3627 20.2925 32.5313 19.9764 32.7892 19.7183L34.6953 17.8122L35.0304 18.1473C35.1552 18.2721 35.3187 18.3344 35.4822 18.3344C35.6456 18.3344 35.8092 18.2721 35.934 18.1473L39.8129 14.2684C39.9326 14.1487 39.9999 13.9862 39.9999 13.8167C39.9999 13.6473 39.9324 13.4849 39.8126 13.3651ZM4.51769 17.4236L1.54224 14.4482L9.27415 6.71628L12.2497 9.69173L4.51769 17.4236ZM12.2527 28.4911C11.8545 28.8892 11.2065 28.8894 10.808 28.4911C10.615 28.298 10.5087 28.0415 10.5087 27.7687C10.5087 27.4958 10.6151 27.2393 10.808 27.0463C11.0072 26.8472 11.2687 26.7476 11.5303 26.7476C11.7919 26.7476 12.0536 26.8472 12.2526 27.0463C12.6509 27.4446 12.6509 28.0927 12.2527 28.4911ZM14.6627 30.9011C14.4699 31.0941 14.2134 31.2003 13.9404 31.2003C13.6676 31.2003 13.411 31.094 13.2181 30.9011C12.8197 30.5028 12.8197 29.8547 13.2181 29.4563C13.4172 29.2572 13.6787 29.1576 13.9404 29.1576C14.2019 29.1576 14.4636 29.2572 14.6627 29.4563C15.0611 29.8546 15.0611 30.5028 14.6627 30.9011ZM17.011 33.2493C16.818 33.4422 16.5615 33.5485 16.2887 33.5485C16.0158 33.5485 15.7593 33.4421 15.5664 33.2493C15.168 32.851 15.168 32.2029 15.5664 31.8045C15.7655 31.6054 16.027 31.5057 16.2887 31.5057C16.5502 31.5057 16.8119 31.6054 17.011 31.8045C17.4093 32.2029 17.4093 32.851 17.011 33.2493ZM27.8615 28.3452C27.6973 28.5096 27.479 28.6001 27.2468 28.6001C27.0146 28.6001 26.7962 28.5096 26.6317 28.3448L20.4341 22.1486C20.1844 21.8992 19.78 21.8992 19.5306 22.1488C19.2812 22.3982 19.2813 22.8027 19.5307 23.0522L26.2065 29.7273C26.3708 29.8915 26.4612 30.11 26.4612 30.3423C26.4612 30.5751 26.3708 30.7938 26.2068 30.9578C25.8672 31.2971 25.3149 31.2972 24.9759 30.958L23.8496 29.8318C23.8434 29.8253 23.8373 29.8187 23.8308 29.8123C23.8289 29.8104 23.8268 29.8088 23.8248 29.8069L18.6478 24.6298C18.3982 24.3804 17.9938 24.3804 17.7443 24.6298C17.4947 24.8793 17.4947 25.2838 17.7443 25.5333L22.938 30.7269C23.0967 30.8897 23.1841 31.105 23.1841 31.3334C23.1841 31.5657 23.0936 31.7842 22.9294 31.9484C22.5905 32.2875 22.0387 32.2875 21.6995 31.9484L16.0679 26.3167C15.8182 26.0672 15.4139 26.0672 15.1643 26.3167C14.9148 26.5662 14.9148 26.9707 15.1643 27.2201L19.3389 31.3947C19.34 31.3959 19.341 31.3972 19.3422 31.3983C19.5064 31.5622 19.5967 31.7802 19.5967 32.0123C19.5967 32.2446 19.5062 32.463 19.3413 32.6279C19.1773 32.7923 18.959 32.8828 18.7264 32.8828C18.6703 32.8828 18.6153 32.8771 18.5616 32.8669C18.6649 32.1706 18.4494 31.4357 17.9146 30.9007C17.4803 30.4665 16.9029 30.2273 16.2887 30.2273C16.2716 30.2273 16.2546 30.2282 16.2375 30.2286C16.2506 29.6232 16.0273 29.0136 15.5663 28.5526C15.1319 28.1183 14.5546 27.8791 13.9404 27.8791C13.9019 27.8791 13.8637 27.8801 13.8256 27.8819C13.8563 27.2558 13.6332 26.6196 13.1561 26.1424C12.5753 25.5617 11.7589 25.3577 11.012 25.5294L10.5539 25.0713C9.29297 23.8098 8.45407 22.217 8.12759 20.465C8.00798 19.8234 7.69775 19.2371 7.23049 18.7698L6.10432 17.6436L12.5113 11.2366L14.108 12.8334C14.7218 13.4471 15.5574 13.7755 16.4132 13.7755C16.7965 13.7755 17.1841 13.7096 17.5575 13.5739C17.7386 13.508 17.9258 13.4608 18.1156 13.4308L14.16 17.3865C13.676 17.8704 13.4094 18.5138 13.4094 19.1982C13.4094 19.8826 13.676 20.526 14.1599 21.0099C14.6594 21.5095 15.3154 21.7592 15.9716 21.7591C16.6277 21.7591 17.2839 21.5092 17.7835 21.0099L19.7702 19.0232L20.3079 19.5614C20.3081 19.5615 20.3081 19.5616 20.3083 19.5618L20.3306 19.5841L20.3521 19.6056C20.3521 19.6056 20.3524 19.6058 20.3525 19.6059L20.3529 19.6063C20.3591 19.6124 20.3651 19.6182 20.3711 19.6239L27.8618 27.1146C28.0261 27.2788 28.1165 27.4973 28.1165 27.7296C28.1165 27.9623 28.0261 28.1808 27.8615 28.3452ZM31.8855 18.815C31.4422 19.2583 31.1511 19.8089 31.0438 20.4072C30.725 22.1822 29.8823 23.795 28.6068 25.0711L28.1159 25.5621L24.0744 21.5206C24.1623 21.5271 24.2505 21.5314 24.3393 21.5314C24.7485 21.5314 25.1673 21.4597 25.5841 21.2892C25.9107 21.1556 26.0671 20.7825 25.9335 20.456C25.7999 20.1296 25.4272 19.9731 25.1004 20.1067C23.4562 20.7794 21.4849 18.9254 21.2655 18.7118C21.2618 18.7082 21.2581 18.7046 21.2544 18.7012L21.2317 18.6786L21.2315 18.6784L21.2117 18.6587C21.2117 18.6587 21.2115 18.6585 21.2113 18.6584L20.6735 18.1202L21.2834 17.5103C21.533 17.2607 21.533 16.8563 21.2835 16.6068C21.0339 16.3574 20.6295 16.3573 20.38 16.6068L19.3199 17.6669C19.3195 17.6673 19.319 17.6677 19.3186 17.6681C19.3182 17.6685 19.3178 17.669 19.3174 17.6693L16.88 20.1068C16.379 20.6077 15.5642 20.6075 15.0634 20.1068C14.8208 19.8643 14.6872 19.5417 14.6872 19.1986C14.6872 18.8554 14.8208 18.5329 15.0635 18.2903L19.2707 14.083C19.5047 13.849 19.7649 13.6431 20.0445 13.4707C20.7088 13.0601 21.476 12.843 22.2633 12.843C22.8643 12.843 23.4695 12.9735 24.0135 13.2205C25.2512 13.782 26.7222 13.5204 27.6737 12.5691L28.563 11.6799L33.7918 16.9087L31.8855 18.815ZM35.482 16.7923L28.6276 9.93798L31.6032 6.96253L38.4575 13.8169L35.482 16.7923Z" fill="#0EBAB9"/>
<path d="M36.1256 14.9442C36.4784 14.9442 36.7644 14.6581 36.7644 14.3053C36.7644 13.9525 36.4784 13.6665 36.1256 13.6665C35.7728 13.6665 35.4868 13.9525 35.4868 14.3053C35.4868 14.6581 35.7728 14.9442 36.1256 14.9442Z" fill="#0EBAB9"/>
<path d="M4.18491 15.5755C4.53772 15.5755 4.82373 15.2895 4.82373 14.9367C4.82373 14.5839 4.53772 14.2979 4.18491 14.2979C3.83209 14.2979 3.54608 14.5839 3.54608 14.9367C3.54608 15.2895 3.83209 15.5755 4.18491 15.5755Z" fill="#0EBAB9"/>
</svg>
