<svg width="40" height="40" viewBox="0 0 40 40" fill="none" xmlns="http://www.w3.org/2000/svg">
<g clip-path="url(#clip0_80_1040)">
<path d="M35.1693 32.4493C36.0807 31.7153 36.6667 30.592 36.6667 29.3333C36.6667 27.3553 35.222 25.7127 33.3333 25.3933V22.6667C33.3333 20.8287 31.838 19.3333 30 19.3333H20.6667V14.6667H26.6667C27.0347 14.6667 27.3333 14.368 27.3333 14C27.3333 10.836 25.3153 8.142 22.5027 7.116C23.414 6.382 24 5.25867 24 4C24 1.794 22.206 0 20 0C17.794 0 16 1.794 16 4C16 5.25867 16.586 6.382 17.4973 7.116C14.6847 8.142 12.6667 10.836 12.6667 14C12.6667 14.368 12.9653 14.6667 13.3333 14.6667H19.3333V19.3333H10C8.162 19.3333 6.66667 20.8287 6.66667 22.6667V25.3933C4.778 25.7127 3.33333 27.3553 3.33333 29.3333C3.33333 30.592 3.91933 31.7153 4.83067 32.4493C2.018 33.4753 0 36.1693 0 39.3333C0 39.7013 0.298667 40 0.666667 40H14C14.368 40 14.6667 39.7013 14.6667 39.3333C14.6667 36.1693 12.6487 33.4753 9.836 32.4493C10.7473 31.7153 11.3333 30.592 11.3333 29.3333C11.3333 27.3553 9.88867 25.7127 8 25.3933V22.6667C8 21.564 8.89733 20.6667 10 20.6667H30C31.1027 20.6667 32 21.564 32 22.6667V25.3933C30.1113 25.712 28.6667 27.3547 28.6667 29.3333C28.6667 30.592 29.2527 31.7153 30.164 32.4493C27.3513 33.4753 25.3333 36.1693 25.3333 39.3333C25.3333 39.7013 25.632 40 26 40H39.3333C39.7013 40 40 39.7013 40 39.3333C40 36.1693 37.982 33.4753 35.1693 32.4493ZM13.2967 38.6667H1.37C1.70267 35.6707 4.25 33.3333 7.33333 33.3333C10.4167 33.3333 12.964 35.6707 13.2967 38.6667ZM10 29.3333C10 30.804 8.804 32 7.33333 32C5.86267 32 4.66667 30.804 4.66667 29.3333C4.66667 27.8627 5.86267 26.6667 7.33333 26.6667C8.804 26.6667 10 27.8627 10 29.3333ZM17.3333 4C17.3333 2.52933 18.5293 1.33333 20 1.33333C21.4707 1.33333 22.6667 2.52933 22.6667 4C22.6667 5.47067 21.4707 6.66667 20 6.66667C18.5293 6.66667 17.3333 5.47067 17.3333 4ZM14.0367 13.3333C14.3693 10.3373 16.9167 8 20 8C23.0833 8 25.6307 10.3373 25.9633 13.3333H14.0367ZM30 29.3333C30 27.8627 31.196 26.6667 32.6667 26.6667C34.1373 26.6667 35.3333 27.8627 35.3333 29.3333C35.3333 30.804 34.1373 32 32.6667 32C31.196 32 30 30.804 30 29.3333ZM26.7033 38.6667C27.036 35.6707 29.5833 33.3333 32.6667 33.3333C35.75 33.3333 38.2973 35.6707 38.63 38.6667H26.7033Z" fill="#0EBAB9"/>
</g>
<defs>
<clipPath id="clip0_80_1040">
<rect width="40" height="40" fill="white"/>
</clipPath>
</defs>
</svg>
