<svg width="40" height="40" viewBox="0 0 40 40" fill="none" xmlns="http://www.w3.org/2000/svg">
<g clip-path="url(#clip0_80_1022)">
<path d="M6.71674 17.7966C6.39127 17.7966 6.12744 18.0605 6.12744 18.3859V19.4504C6.12744 23.8456 8.11877 27.9119 11.5909 30.6067L17.1575 34.927C17.3631 35.0866 17.6096 35.1664 17.856 35.1664C18.1025 35.1664 18.3489 35.0866 18.5546 34.927L22.9086 31.5477C23.1657 31.3481 23.2124 30.978 23.0128 30.7208C22.8133 30.4638 22.4431 30.4171 22.186 30.6166L17.856 33.9773L12.3135 29.6756C9.13119 27.2057 7.30604 23.4788 7.30604 19.4504V18.3859C7.30604 18.0605 7.04221 17.7966 6.71674 17.7966Z" fill="#0EBAB9"/>
<path d="M17.8561 35.9663C17.4099 35.9663 17.0482 36.328 17.0482 36.7742C17.0482 37.2204 17.4099 37.5821 17.8561 37.5821C18.3023 37.5821 18.664 37.2204 18.664 36.7742C18.664 36.3279 18.3023 35.9663 17.8561 35.9663Z" fill="#0EBAB9"/>
<path d="M17.8561 3.17847C17.4099 3.17847 17.0482 3.54019 17.0482 3.98636C17.0482 4.43253 17.4099 4.79425 17.8561 4.79425C18.3023 4.79425 18.664 4.43253 18.664 3.98636C18.664 3.54011 18.3023 3.17847 17.8561 3.17847Z" fill="#0EBAB9"/>
<path d="M30.0176 8.74588C30.0176 9.19205 30.3793 9.55377 30.8255 9.55377C31.2716 9.55377 31.6334 9.19205 31.6334 8.74588C31.6334 8.29971 31.2716 7.93799 30.8255 7.93799C30.3793 7.93799 30.0176 8.29971 30.0176 8.74588Z" fill="#0EBAB9"/>
<path d="M3.98242 8.74588C3.98242 9.19205 4.34414 9.55377 4.79031 9.55377C5.23648 9.55377 5.5982 9.19205 5.5982 8.74588C5.5982 8.29971 5.23648 7.93799 4.79031 7.93799C4.34414 7.93799 3.98242 8.29971 3.98242 8.74588Z" fill="#0EBAB9"/>
<path d="M37.2625 36.1362V21.8414C37.952 21.5173 38.4308 20.8163 38.4308 20.0053C38.4308 18.8873 37.5212 17.9777 36.4031 17.9777H29.5846V10.8219C29.5846 10.2418 29.1506 9.75531 28.575 9.69031C26.3284 9.4368 24.2357 8.96023 22.355 8.27375C21.0933 7.81336 19.9518 7.26375 18.9622 6.64008C18.2903 6.21648 17.4219 6.21656 16.7499 6.64016C15.7602 7.26383 14.6187 7.81344 13.3571 8.27375C11.4764 8.96016 9.38371 9.4368 7.13707 9.69031C6.56152 9.75531 6.12746 10.2418 6.12746 10.8219V15.5993C6.12746 15.9248 6.39129 16.1886 6.71676 16.1886C7.04223 16.1886 7.30605 15.9248 7.30605 15.5993V10.8573C9.63152 10.5923 11.8031 10.0955 13.7611 9.38102C15.101 8.89211 16.318 8.30539 17.3782 7.63727C17.673 7.45164 18.0392 7.45141 18.3339 7.63719C19.394 8.30539 20.6111 8.89203 21.9511 9.38102C23.909 10.0956 26.0807 10.5922 28.406 10.8573V17.9776H25.2478C24.1296 17.9776 23.22 18.8872 23.22 20.0052C23.22 20.8193 23.7025 21.5224 24.3962 21.8448V34.6712L19.9923 38.0891C19.3839 38.5612 18.6252 38.8213 17.8561 38.8213C17.0757 38.8213 16.3371 38.5682 15.72 38.0892L9.4341 33.2107C7.36441 31.6044 5.66144 29.5116 4.50918 27.1587C3.35691 24.8059 2.74793 22.1775 2.74793 19.5576V6.71344C2.74793 6.56289 2.87043 6.43953 3.02098 6.43844L4.93168 6.42453C11.4619 6.37711 14.6411 4.16586 15.955 2.85203C16.3552 2.45172 16.7272 2.02359 17.0607 1.57945C17.252 1.32453 17.5439 1.17852 17.8618 1.17852C17.8626 1.17852 17.8634 1.17852 17.8643 1.17859C18.1807 1.1793 18.4705 1.32539 18.6592 1.57922C18.9944 2.03023 19.3639 2.45844 19.7575 2.85203C20.8153 3.90977 24.0068 6.37539 30.7807 6.42453L32.6914 6.43844C32.842 6.43953 32.9645 6.56289 32.9645 6.71344V15.5748C32.9645 15.9002 33.2283 16.1641 33.5538 16.1641C33.8793 16.1641 34.1431 15.9002 34.1431 15.5748V6.71344C34.1431 5.91773 33.4957 5.2657 32.7001 5.25984L30.7894 5.24594C24.4516 5.19992 21.5461 2.97359 20.591 2.01867C20.2379 1.66555 19.9063 1.28117 19.6052 0.876172C19.1923 0.320938 18.5589 0.00164062 17.867 0C17.8652 0 17.8634 0 17.8616 0C17.1695 0 16.5342 0.3175 16.118 0.871797C15.8178 1.27164 15.4825 1.6575 15.1214 2.01859C13.9351 3.20492 11.0329 5.20156 4.92301 5.24594L3.0123 5.25984C2.21668 5.2657 1.56934 5.91773 1.56934 6.71344V19.5577C1.56934 22.3562 2.21988 25.1639 3.45066 27.6772C4.68152 30.1905 6.50066 32.4259 8.71144 34.1419L14.9973 39.0204C15.8113 39.6521 16.8265 40 17.8561 40C18.8855 40 19.9008 39.6521 20.715 39.0203L23.6183 36.767C23.3682 37.1041 23.2201 37.5212 23.2201 37.9722C23.2201 39.0903 24.1297 39.9999 25.2478 39.9999H36.4032C37.5212 39.9999 38.4309 39.0903 38.4309 37.9722C38.4308 37.1613 37.9521 36.4602 37.2625 36.1362ZM25.5748 29.3105C26.0721 28.8026 26.5307 28.258 26.9446 27.6834C27.3699 28.1987 27.8661 28.6332 28.4082 28.9495C27.0234 29.7576 25.9365 31.3342 25.5748 33.0695V29.3105ZM25.5748 24.8296C25.7067 25.4623 25.9355 26.0736 26.2396 26.6345C26.0318 26.9449 25.8096 27.2464 25.5748 27.5384V24.8296ZM26.6239 34.3024C26.6239 32.2035 28.0794 30.0662 29.8024 29.6353C30.1172 29.5564 30.3371 29.2743 30.3369 28.9493C30.3368 28.6243 30.1169 28.3423 29.8021 28.2636C28.0793 27.8327 26.6238 25.6955 26.6238 23.5965V22.033H35.0268V23.5965C35.0268 25.6955 33.5713 27.8327 31.8486 28.2636C31.5338 28.3423 31.3138 28.6242 31.3137 28.9493C31.3136 29.2743 31.5334 29.5565 31.8485 29.6354C33.5713 30.0662 35.0268 32.2035 35.0268 34.3024V35.9445H26.6239V34.3024ZM36.0839 33.1089C35.7304 31.3581 34.6378 29.7636 33.2426 28.9495C34.6379 28.1354 35.7304 26.5409 36.0839 24.7902V33.1089ZM25.2478 19.1562H36.4031C36.8713 19.1562 37.2522 19.537 37.2522 20.0053C37.2522 20.4735 36.8713 20.8545 36.4031 20.8545H25.2478C24.7795 20.8545 24.3986 20.4736 24.3986 20.0053C24.3986 19.5371 24.7796 19.1562 25.2478 19.1562ZM36.4031 38.8214H25.2478C24.7795 38.8214 24.3986 38.4405 24.3986 37.9722C24.3986 37.504 24.7795 37.123 25.2478 37.123H36.4031C36.8713 37.123 37.2522 37.5039 37.2522 37.9722C37.2522 38.4405 36.8713 38.8214 36.4031 38.8214Z" fill="#0EBAB9"/>
<path d="M15.1561 24.9291H15.1642C15.7093 24.9291 16.2155 24.6835 16.5528 24.2554L24.002 14.8023C24.2943 14.4313 24.4246 13.9688 24.3691 13.4999C24.3135 13.031 24.0786 12.6117 23.7077 12.3196C23.3367 12.0273 22.8742 11.897 22.4054 11.9524C21.9364 12.008 21.5172 12.2429 21.225 12.6138L15.1842 20.2796L12.4372 16.6925C11.8447 15.9187 10.7329 15.771 9.9587 16.3638C9.58378 16.6509 9.34315 17.0668 9.28104 17.5349C9.21893 18.0031 9.34284 18.4674 9.62995 18.8423L13.7607 24.236C14.095 24.6726 14.6021 24.9253 15.1561 24.9291ZM10.4494 17.6899C10.4701 17.5338 10.5503 17.3953 10.6752 17.2996C10.782 17.2179 10.9079 17.1784 11.033 17.1784C11.2103 17.1784 11.3857 17.2578 11.5014 17.4091L14.7097 21.5984C14.8203 21.7428 14.9915 21.8281 15.1735 21.8293C15.3526 21.8282 15.5279 21.7477 15.6404 21.6047L22.1507 13.3431C22.2481 13.2196 22.3878 13.1413 22.5441 13.1227C22.7007 13.1045 22.8546 13.1477 22.9783 13.2451C23.1019 13.3425 23.1802 13.4823 23.1987 13.6385C23.2172 13.7948 23.1738 13.949 23.0764 14.0727L15.6271 23.5259C15.5147 23.6685 15.346 23.7504 15.1643 23.7504H15.1603C14.9769 23.7492 14.8078 23.6649 14.6964 23.5194L10.5657 18.1256C10.4699 18.0007 10.4286 17.846 10.4494 17.6899Z" fill="#0EBAB9"/>
</g>
<defs>
<clipPath id="clip0_80_1022">
<rect width="40" height="40" fill="white"/>
</clipPath>
</defs>
</svg>
