<svg width="26" height="25" viewBox="0 0 26 25" fill="none" xmlns="http://www.w3.org/2000/svg">
<g clip-path="url(#clip0_80_1271)">
<path d="M25.3407 17.5167C25.3099 17.4549 25.2813 17.4038 25.255 17.3629C24.8173 16.6251 23.9957 15.7277 22.7904 14.6704L22.7649 14.6461L22.7521 14.6342L22.7392 14.622L22.7266 14.6223C22.1792 14.1296 21.832 13.7977 21.6857 13.6268C21.4176 13.3011 21.3501 12.9656 21.4816 12.6199C21.5741 12.359 21.9336 11.8031 22.5591 10.9517C22.888 10.5006 23.1484 10.1391 23.3406 9.86689C24.7266 7.9104 25.3162 6.66864 25.1094 6.14111L25.0314 6.01869C24.9793 5.94513 24.8483 5.88021 24.6385 5.82359C24.4283 5.76711 24.1616 5.7644 23.838 5.81528L20.2415 5.94287C20.1826 5.92388 20.0994 5.92819 19.9918 5.95631C19.8842 5.98442 19.8304 5.99853 19.8304 5.99853L19.7687 6.0316L19.72 6.07059C19.6791 6.09663 19.6346 6.14165 19.5863 6.20555C19.5384 6.26923 19.4988 6.34347 19.468 6.42768C19.1051 7.44645 18.6866 8.39597 18.2116 9.27622C17.9182 9.80139 17.648 10.257 17.4004 10.6433C17.1531 11.0294 16.9446 11.3147 16.775 11.4986C16.6051 11.6826 16.4513 11.8306 16.3125 11.943C16.174 12.0555 16.0672 12.1044 15.9919 12.0897C15.9164 12.0751 15.8452 12.0605 15.7779 12.0458C15.6592 11.9741 15.5626 11.8748 15.4882 11.7478C15.4136 11.6208 15.3612 11.4597 15.3306 11.2647C15.3002 11.0696 15.2807 10.9016 15.2724 10.7601C15.2645 10.6188 15.2606 10.4186 15.2616 10.1603C15.2629 9.90179 15.2618 9.72694 15.2592 9.63533C15.2502 9.31885 15.2465 8.9752 15.2483 8.60429C15.2503 8.23337 15.2522 7.93948 15.2545 7.72294C15.2568 7.50618 15.2542 7.277 15.2473 7.03551C15.2404 6.79401 15.2203 6.60504 15.1873 6.46841C15.1547 6.33194 15.1068 6.19994 15.0451 6.07241C14.983 5.94502 14.8947 5.84762 14.7805 5.77995C14.6661 5.71238 14.5247 5.66019 14.3572 5.62321C13.913 5.53593 13.3494 5.49795 12.6662 5.50906C11.117 5.53667 10.1247 5.6651 9.6895 5.89422C9.51725 5.9907 9.36257 6.12021 9.22561 6.28236C9.08091 6.4699 9.06286 6.57051 9.17156 6.58387C9.6734 6.64445 10.0323 6.81342 10.2486 7.09057L10.3279 7.23844C10.3893 7.34501 10.4531 7.53497 10.5192 7.80805C10.5853 8.08113 10.6316 8.38398 10.6576 8.71644C10.7165 9.32324 10.7314 9.84368 10.7022 10.2778C10.6729 10.7121 10.6431 11.0504 10.6125 11.293C10.5818 11.5356 10.5312 11.7328 10.4606 11.8848C10.3898 12.0369 10.3425 12.1299 10.3185 12.1639C10.2944 12.1978 10.2742 12.2194 10.2579 12.2281C10.1508 12.2726 10.0389 12.297 9.92237 12.3003C9.80569 12.3036 9.66254 12.2493 9.4927 12.1374C9.32291 12.0256 9.14556 11.8703 8.96067 11.6713C8.77578 11.4724 8.56568 11.1929 8.33031 10.833C8.0951 10.4731 7.84956 10.0467 7.59379 9.55403L7.38364 9.1974C7.25208 8.96787 7.07176 8.63334 6.84253 8.19411C6.61315 7.75471 6.40935 7.32917 6.231 6.91756C6.15946 6.74459 6.05569 6.61432 5.91986 6.52652L5.85627 6.49072C5.81376 6.45866 5.74603 6.42526 5.65343 6.39025C5.5607 6.35528 5.4643 6.33107 5.36381 6.31734L1.94207 6.43994C1.59234 6.44993 1.35731 6.53593 1.23688 6.69774L1.18901 6.77403C1.16522 6.81643 1.15452 6.88338 1.15714 6.97503C1.15976 7.06664 1.18795 7.17837 1.24175 7.31007C1.77491 8.47003 2.35057 9.58696 2.96875 10.661C3.58693 11.7351 4.12215 12.5992 4.57406 13.2527C5.02607 13.9065 5.48537 14.5227 5.95195 15.101C6.41854 15.6794 6.72703 16.0498 6.87743 16.2121C7.028 16.3747 7.1461 16.4961 7.23173 16.577L7.55262 16.8678C7.75817 17.062 8.05848 17.293 8.45367 17.5608C8.84895 17.8289 9.28559 18.0914 9.7638 18.3488C10.2421 18.6057 10.7958 18.8108 11.4253 18.9636C12.0547 19.1166 12.6645 19.1678 13.2548 19.1178L14.6913 19.0768C14.9819 19.0433 15.2 18.9454 15.3455 18.783L15.3934 18.719C15.4254 18.6684 15.4545 18.5902 15.4804 18.4855C15.5067 18.3806 15.5179 18.2655 15.5143 18.1408C15.4956 17.783 15.5136 17.4596 15.5677 17.1706C15.6218 16.8816 15.6866 16.6631 15.7618 16.515C15.8369 16.367 15.9229 16.2416 16.0197 16.139C16.1167 16.0363 16.1861 15.9738 16.2272 15.9518C16.2681 15.9296 16.3008 15.9145 16.3255 15.9052C16.5235 15.8329 16.7605 15.8907 17.037 16.0788C17.3133 16.2668 17.5741 16.5012 17.8197 16.7815C18.0653 17.0622 18.3596 17.3765 18.7029 17.725C19.0463 18.0736 19.3453 18.3315 19.6 18.4995L19.854 18.6423C20.0237 18.7375 20.2428 18.8229 20.5117 18.8986C20.7801 18.9742 21.0138 18.9884 21.2128 18.941L24.4088 18.7998C24.7251 18.7908 24.9697 18.7314 25.1413 18.6225C25.3132 18.5135 25.4139 18.3958 25.4438 18.2701C25.4737 18.1443 25.4714 18.0026 25.438 17.8451C25.4039 17.6879 25.3716 17.5783 25.3407 17.5167Z" fill="#0D2839"/>
</g>
<defs>
<clipPath id="clip0_80_1271">
<rect width="24" height="24" fill="white" transform="translate(0.977539 0.685547) rotate(-1.63595)"/>
</clipPath>
</defs>
</svg>
