<svg width="26" height="25" viewBox="0 0 26 25" fill="none" xmlns="http://www.w3.org/2000/svg">
<g clip-path="url(#clip0_180_2)">
<path d="M25.3407 17.8312C25.3099 17.7694 25.2813 17.7182 25.255 17.6774C24.8173 16.9396 23.9957 16.0422 22.7904 14.9848L22.7649 14.9606L22.7521 14.9487L22.7392 14.9365L22.7266 14.9368C22.1792 14.4441 21.832 14.1122 21.6857 13.9413C21.4176 13.6156 21.3501 13.2801 21.4816 12.9344C21.5741 12.6734 21.9336 12.1176 22.5591 11.2662C22.888 10.8151 23.1484 10.4536 23.3406 10.1814C24.7266 8.22489 25.3162 6.98312 25.1094 6.4556L25.0314 6.33317C24.9793 6.25961 24.8483 6.1947 24.6385 6.13808C24.4283 6.0816 24.1616 6.07888 23.838 6.12977L20.2415 6.25735C20.1826 6.23837 20.0994 6.24267 19.9918 6.27079C19.8842 6.29891 19.8304 6.31301 19.8304 6.31301L19.7687 6.34608L19.72 6.38508C19.6791 6.41112 19.6346 6.45613 19.5863 6.52003C19.5384 6.58371 19.4988 6.65796 19.468 6.74216C19.1051 7.76094 18.6866 8.71045 18.2116 9.5907C17.9182 10.1159 17.648 10.5715 17.4004 10.9578C17.1531 11.3439 16.9446 11.6292 16.775 11.813C16.6051 11.9971 16.4513 12.1451 16.3125 12.2575C16.174 12.3699 16.0672 12.4188 15.9919 12.4042C15.9164 12.3896 15.8452 12.375 15.7779 12.3603C15.6592 12.2886 15.5626 12.1893 15.4882 12.0623C15.4136 11.9353 15.3612 11.7742 15.3306 11.5792C15.3002 11.3841 15.2807 11.2161 15.2724 11.0746C15.2645 10.9332 15.2606 10.7331 15.2616 10.4748C15.2629 10.2163 15.2618 10.0414 15.2592 9.94981C15.2502 9.63333 15.2465 9.28968 15.2483 8.91877C15.2503 8.54786 15.2522 8.25396 15.2545 8.03742C15.2568 7.82067 15.2542 7.59148 15.2473 7.34999C15.2404 7.10849 15.2203 6.91952 15.1873 6.78289C15.1547 6.64643 15.1068 6.51443 15.0451 6.38689C14.983 6.2595 14.8947 6.16211 14.7805 6.09444C14.6661 6.02686 14.5247 5.97468 14.3572 5.93769C13.913 5.85042 13.3494 5.81244 12.6662 5.82354C11.117 5.85115 10.1247 5.97959 9.6895 6.20871C9.51725 6.30518 9.36257 6.43469 9.22561 6.59684C9.08091 6.78439 9.06286 6.885 9.17156 6.89835C9.6734 6.95894 10.0323 7.1279 10.2486 7.40505L10.3279 7.55293C10.3893 7.6595 10.4531 7.84945 10.5192 8.12253C10.5853 8.39561 10.6316 8.69847 10.6576 9.03093C10.7165 9.63772 10.7314 10.1582 10.7022 10.5923C10.6729 11.0266 10.6431 11.3649 10.6125 11.6075C10.5818 11.85 10.5312 12.0473 10.4606 12.1993C10.3898 12.3513 10.3425 12.4444 10.3185 12.4783C10.2944 12.5123 10.2742 12.5339 10.2579 12.5425C10.1508 12.5871 10.0389 12.6115 9.92237 12.6148C9.80569 12.6181 9.66254 12.5638 9.4927 12.4519C9.32291 12.34 9.14556 12.1848 8.96067 11.9858C8.77578 11.7869 8.56568 11.5074 8.33031 11.1475C8.0951 10.7876 7.84956 10.3612 7.59379 9.86851L7.38364 9.51188C7.25208 9.28236 7.07176 8.94782 6.84253 8.5086C6.61315 8.0692 6.40935 7.64365 6.231 7.23204C6.15946 7.05908 6.05569 6.9288 5.91986 6.841L5.85627 6.8052C5.81376 6.77314 5.74603 6.73974 5.65343 6.70473C5.5607 6.66977 5.4643 6.64555 5.36381 6.63182L1.94207 6.75442C1.59234 6.76441 1.35731 6.85042 1.23688 7.01223L1.18901 7.08851C1.16522 7.13092 1.15452 7.19786 1.15714 7.28952C1.15976 7.38113 1.18795 7.49285 1.24175 7.62455C1.77491 8.78451 2.35057 9.90144 2.96875 10.9755C3.58693 12.0496 4.12215 12.9137 4.57406 13.5671C5.02607 14.221 5.48537 14.8372 5.95195 15.4154C6.41854 15.9939 6.72703 16.3643 6.87743 16.5266C7.028 16.6892 7.1461 16.8106 7.23173 16.8915L7.55262 17.1823C7.75817 17.3765 8.05848 17.6075 8.45367 17.8753C8.84895 18.1433 9.28559 18.4058 9.7638 18.6632C10.2421 18.9202 10.7958 19.1253 11.4253 19.2781C12.0547 19.4311 12.6645 19.4823 13.2548 19.4323L14.6913 19.3913C14.9819 19.3578 15.2 19.2599 15.3455 19.0975L15.3934 19.0335C15.4254 18.9828 15.4545 18.9047 15.4804 18.8C15.5067 18.6951 15.5179 18.58 15.5143 18.4553C15.4956 18.0975 15.5136 17.7741 15.5677 17.4851C15.6218 17.1961 15.6866 16.9776 15.7618 16.8295C15.8369 16.6815 15.9229 16.556 16.0197 16.4535C16.1167 16.3508 16.1861 16.2883 16.2272 16.2662C16.2681 16.2441 16.3008 16.2289 16.3255 16.2197C16.5235 16.1474 16.7605 16.2052 17.037 16.3933C17.3133 16.5813 17.5741 16.8156 17.8197 17.096C18.0653 17.3767 18.3596 17.691 18.7029 18.0395C19.0463 18.3881 19.3453 18.646 19.6 18.814L19.854 18.9568C20.0237 19.052 20.2428 19.1374 20.5117 19.2131C20.7801 19.2887 21.0138 19.3028 21.2128 19.2555L24.4088 19.1143C24.7251 19.1053 24.9697 19.0459 25.1413 18.937C25.3132 18.8279 25.4139 18.7103 25.4438 18.5846C25.4737 18.4588 25.4714 18.3171 25.438 18.1595C25.4039 18.0024 25.3716 17.8928 25.3407 17.8312Z" fill="white"/>
</g>
<defs>
<clipPath id="clip0_180_2">
<rect width="24" height="24" fill="white" transform="translate(0.977539 1) rotate(-1.63595)"/>
</clipPath>
</defs>
</svg>
