<svg width="26" height="26" viewBox="0 0 26 26" fill="none" xmlns="http://www.w3.org/2000/svg">
<g clip-path="url(#clip0_80_953)">
<path d="M24.7605 15.229H24.3714V11.7243C24.3714 11.1695 24.0952 10.6782 23.6735 10.3797V9.90255C23.6735 9.21035 23.1104 8.64724 22.4182 8.64724H22.1276L23.2392 7.01614C23.6118 6.46943 23.4701 5.72147 22.9234 5.34884L15.3808 0.208764C15.116 0.0282367 14.7968 -0.0383883 14.4817 0.0213812C14.1668 0.0810492 13.894 0.259748 13.7135 0.524623L7.20329 10.0777H5.39167L5.82874 5.65317C5.83367 5.60331 5.86607 5.56009 5.91126 5.54308C6.47438 5.33076 6.96238 4.93426 7.28535 4.42665C7.31079 4.38669 7.35878 4.36384 7.40845 4.36887L10.2499 4.64958C10.4536 4.66934 10.6349 4.52096 10.655 4.31732C10.6751 4.11369 10.5264 3.93235 10.3227 3.91224L7.48127 3.63152C7.15144 3.59922 6.8369 3.75121 6.66019 4.02888C6.42273 4.40213 6.06391 4.69361 5.64989 4.84971C5.33825 4.96722 5.12426 5.24713 5.09135 5.5803L4.64711 10.0777H4.1747L4.86593 3.07983C4.89081 2.82796 5.11562 2.64291 5.3678 2.66815L11.1098 3.23538C11.3135 3.25503 11.4948 3.10675 11.5149 2.90312C11.535 2.69948 11.3863 2.51814 11.1827 2.49803L5.44062 1.93081C4.78229 1.86586 4.19359 2.34853 4.12854 3.00696L3.57137 8.64724H2.62252C1.93037 8.64724 1.3672 9.21035 1.3672 9.90255V10.2281C0.800943 10.4888 0.406677 11.0612 0.406677 11.7243V24.3534C0.406677 25.2613 1.14534 26 2.05336 26H22.7247C23.6327 26 24.3714 25.2613 24.3714 24.3534V20.8488H24.7605C25.2197 20.8488 25.5933 20.4752 25.5933 20.0159V16.0619C25.5934 15.6026 25.2197 15.229 24.7605 15.229ZM22.4182 9.38824C22.7018 9.38819 22.9325 9.61894 22.9325 9.9026V10.0914C22.8644 10.0827 22.7952 10.0778 22.7247 10.0778H21.1528L21.6227 9.38824H22.4182ZM14.3258 0.941842C14.3948 0.840534 14.4992 0.772182 14.6196 0.74933C14.6484 0.743897 14.6773 0.741155 14.706 0.741155C14.7973 0.741155 14.8864 0.768475 14.9635 0.820983L22.5061 5.96106C22.7152 6.1036 22.7695 6.3897 22.627 6.59882L20.2562 10.0776H19.6873L20.8496 8.37205C21.0381 8.09545 21.0536 7.74343 20.89 7.45332C20.6726 7.06789 20.5844 6.61406 20.6418 6.17536C20.6844 5.84899 20.5408 5.53039 20.267 5.34381L16.357 2.67922C16.0831 2.4926 15.734 2.47549 15.4459 2.63458C15.0587 2.84837 14.604 2.93231 14.1658 2.87097C13.8408 2.82537 13.5112 2.97213 13.3255 3.24457L8.66889 10.0777H8.09994L14.3258 0.941842ZM14.4889 7.23318C12.8756 7.23318 11.5512 8.49119 11.4433 10.0777H9.56543L13.9376 3.66184H13.9377C13.9625 3.62533 14.0037 3.60359 14.046 3.60359C14.0517 3.60359 14.0573 3.604 14.0629 3.60476C14.659 3.68814 15.2773 3.57409 15.804 3.28326C15.8454 3.26031 15.8986 3.26361 15.9396 3.29154L19.8498 5.95619C19.8907 5.98412 19.9132 6.03246 19.9071 6.07938C19.829 6.67601 19.949 7.2932 20.2447 7.81737C20.2684 7.85947 20.2655 7.9134 20.2374 7.95478L18.7907 10.0776H17.5347C17.4267 8.49119 16.1024 7.23318 14.4889 7.23318ZM16.7918 10.0777H12.1862C12.2923 8.90018 13.2842 7.97418 14.4889 7.97418C15.6937 7.97413 16.6857 8.90018 16.7918 10.0777ZM2.10815 9.90255C2.10815 9.61888 2.33885 9.38813 2.62252 9.38813H3.49819L3.43009 10.0777H2.10815V9.90255ZM1.14763 11.7243C1.14763 11.2249 1.55393 10.8186 2.05336 10.8186H22.7247C23.2242 10.8186 23.6304 11.2249 23.6304 11.7243V12.7523H1.14763V11.7243ZM23.6304 24.3534C23.6304 24.8528 23.2242 25.2591 22.7247 25.2591H2.05336C1.55393 25.2591 1.14763 24.8528 1.14763 24.3534V23.3254H3.14546C3.35011 23.3254 3.51591 23.1595 3.51591 22.9549C3.51591 22.7503 3.35006 22.5845 3.14546 22.5845H1.14763V13.4933H23.6304V15.229H20.1079H20.1079C18.998 15.229 18.0366 15.8759 17.5803 16.8124C17.5788 16.8156 17.5771 16.8186 17.5755 16.8217C17.5717 16.8297 17.5683 16.838 17.5645 16.846C17.5102 16.9614 17.463 17.0809 17.4245 17.2042C17.4244 17.2046 17.4243 17.2049 17.4242 17.2052C17.3422 17.4688 17.298 17.7487 17.298 18.0389C17.298 19.5883 18.5585 20.8488 20.1078 20.8488H20.1079H23.6304V22.5845H5.51766C5.31301 22.5845 5.14721 22.7503 5.14721 22.9549C5.14721 23.1595 5.31306 23.3254 5.51766 23.3254H23.6304V24.3534ZM24.8524 20.0159C24.8524 20.0666 24.8112 20.1078 24.7605 20.1078H20.108C19.3237 20.1078 18.6398 19.6691 18.2891 19.0242C18.2731 18.9949 18.2579 18.9652 18.2433 18.9351C18.2142 18.8748 18.188 18.8129 18.1648 18.7495C18.0834 18.5278 18.039 18.2884 18.039 18.0389C18.039 17.7893 18.0835 17.55 18.1648 17.3282C18.188 17.2649 18.2143 17.203 18.2433 17.1427C18.2579 17.1126 18.2731 17.0828 18.2891 17.0535C18.6398 16.4086 19.3237 15.9699 20.108 15.9699H24.7605C24.8111 15.9699 24.8524 16.0112 24.8524 16.0619V20.0159Z" fill="white"/>
<path d="M20.1947 16.5358C19.3659 16.5358 18.6916 17.2101 18.6916 18.0389C18.6916 18.8677 19.3659 19.5419 20.1947 19.5419C21.0236 19.5419 21.6978 18.8677 21.6978 18.0389C21.6978 17.2101 21.0236 16.5358 20.1947 16.5358ZM20.1947 18.801C19.7744 18.801 19.4325 18.4591 19.4325 18.0389C19.4325 17.6187 19.7744 17.2767 20.1947 17.2767C20.615 17.2767 20.9569 17.6186 20.9569 18.0389C20.9569 18.4591 20.615 18.801 20.1947 18.801Z" fill="white"/>
</g>
<defs>
<clipPath id="clip0_80_953">
<rect width="26" height="26" fill="white"/>
</clipPath>
</defs>
</svg>
