<svg width="18" height="18" viewBox="0 0 18 18" fill="none" xmlns="http://www.w3.org/2000/svg">
<g clip-path="url(#clip0_80_1186)">
<path fill-rule="evenodd" clip-rule="evenodd" d="M6.4848 4.57158C6.31026 4.15364 6.17796 4.13775 5.91356 4.12706C5.82356 4.12186 5.7233 4.11665 5.61206 4.11665C5.2681 4.11665 4.90852 4.2172 4.69153 4.43939C4.42715 4.70925 3.77114 5.33883 3.77114 6.62976C3.77114 7.92084 4.71263 9.16944 4.83961 9.34422C4.97194 9.51864 6.67518 12.2065 9.31992 13.302C11.3881 14.1591 12.0018 14.0797 12.4724 13.9792C13.1601 13.8312 14.0223 13.3229 14.2393 12.7094C14.4561 12.0956 14.4561 11.5718 14.3926 11.4607C14.3291 11.3495 14.1545 11.2863 13.8901 11.1538C13.6257 11.0215 12.3403 10.3865 12.097 10.3019C11.8589 10.2121 11.6315 10.2438 11.4518 10.4978C11.1978 10.8523 10.9493 11.2122 10.7482 11.429C10.5896 11.5983 10.3303 11.6195 10.1135 11.5295C9.82254 11.408 9.00804 11.122 8.00298 10.228C7.22532 9.53496 6.69642 8.67264 6.54312 8.41332C6.3897 8.14878 6.52722 7.99524 6.6489 7.8525C6.7812 7.6884 6.90804 7.57212 7.04022 7.41852C7.17258 7.2651 7.24656 7.18578 7.33122 7.00578C7.42122 6.8313 7.35762 6.6513 7.2942 6.51894C7.23066 6.38634 6.70176 5.09527 6.4848 4.57158ZM8.9973 0C4.0358 0 0 4.03692 0 8.99988C0 10.9681 0.634782 12.7935 1.7138 14.275L0.592313 17.6189L4.05169 16.5133C5.47453 17.4551 7.17246 18 9.0027 18C13.9642 18 18 13.9628 18 9.00012C18 4.0372 13.9642 0.00028125 9.0027 0.00028125L8.9973 0Z" fill="white"/>
</g>
<defs>
<clipPath id="clip0_80_1186">
<rect width="18" height="18" fill="white"/>
</clipPath>
</defs>
</svg>
